<svg width="179" height="37" viewBox="0 0 179 37" fill="none" xmlns="http://www.w3.org/2000/svg">
<g clip-path="url(#clip0_6125_66271)">
<path d="M40.9848 25.5824H42.0498L45.1844 34.0446H44.0839L43.2608 31.7713H39.7515L38.9284 34.0446H37.8516L40.9861 25.5824H40.9848ZM41.1912 27.7939L40.0776 30.8641H42.9334L41.8197 27.7939C41.7106 27.4915 41.5291 26.8394 41.5291 26.8394H41.4936C41.4936 26.8394 41.3004 27.4797 41.1912 27.7939Z" fill="white"/>
<path d="M40.9848 25.5824H42.0498L45.1844 34.0446H44.0839L43.2608 31.7713H39.7515L38.9284 34.0446H37.8516L40.9861 25.5824H40.9848ZM41.1912 27.7939L40.0776 30.8641H42.9334L41.8197 27.7939C41.7106 27.4915 41.5291 26.8394 41.5291 26.8394H41.4936C41.4936 26.8394 41.3004 27.4797 41.1912 27.7939Z" fill="url(#paint0_linear_6125_66271)"/>
<path d="M89.0547 25.5824H94.5244V26.4896H90.0947V29.1969H94.3429V30.1041H90.0947V33.1387H94.5362V34.046H89.0547V25.5837V25.5824Z" fill="white"/>
<path d="M89.0547 25.5824H94.5244V26.4896H90.0947V29.1969H94.3429V30.1041H90.0947V33.1387H94.5362V34.046H89.0547V25.5837V25.5824Z" fill="url(#paint1_linear_6125_66271)"/>
<path d="M94.8906 34.0447L97.0088 30.8654L95.0852 27.9518H96.1621L97.5426 30.0673L98.935 27.9518H100L98.0765 30.8405L100.182 34.0447H99.1047L97.5308 31.6386L95.9451 34.0447H94.8919H94.8906Z" fill="white"/>
<path d="M94.8906 34.0447L97.0088 30.8654L95.0852 27.9518H96.1621L97.5426 30.0673L98.935 27.9518H100L98.0765 30.8405L100.182 34.0447H99.1047L97.5308 31.6386L95.9451 34.0447H94.8919H94.8906Z" fill="url(#paint2_linear_6125_66271)"/>
<path d="M106.204 30.9982C106.204 32.7877 105.127 34.1407 103.614 34.1407H103.227C102.61 34.1407 101.932 33.7055 101.593 33.173V36.51H100.625V27.9504H101.593V28.8209C101.92 28.2897 102.609 27.8531 103.251 27.8531H103.625C105.114 27.8531 106.203 29.2442 106.203 30.9956L106.204 30.9982ZM103.118 33.2834H103.59C104.401 33.2834 105.199 32.3762 105.199 30.9982C105.199 29.6203 104.4 28.713 103.59 28.713H103.118C102.234 28.713 101.509 29.6321 101.509 30.9982C101.509 32.3643 102.234 33.2834 103.118 33.2834Z" fill="white"/>
<path d="M106.204 30.9982C106.204 32.7877 105.127 34.1407 103.614 34.1407H103.227C102.61 34.1407 101.932 33.7055 101.593 33.173V36.51H100.625V27.9504H101.593V28.8209C101.92 28.2897 102.609 27.8531 103.251 27.8531H103.625C105.114 27.8531 106.203 29.2442 106.203 30.9956L106.204 30.9982ZM103.118 33.2834H103.59C104.401 33.2834 105.199 32.3762 105.199 30.9982C105.199 29.6203 104.4 28.713 103.59 28.713H103.118C102.234 28.713 101.509 29.6321 101.509 30.9982C101.509 32.3643 102.234 33.2834 103.118 33.2834Z" fill="url(#paint3_linear_6125_66271)"/>
<path d="M109.198 27.8545H109.707C111.087 27.8545 112.104 29.1838 112.104 30.6958C112.104 30.9259 112.092 31.0469 112.08 31.1679H107.65C107.723 32.4617 108.413 33.2834 109.224 33.2834H109.696C110.459 33.2834 110.979 32.7273 111.1 32.0869H112.033C111.912 33.1993 110.968 34.142 109.709 34.142H109.214C107.786 34.142 106.648 32.7996 106.648 30.9628C106.648 29.1259 107.955 27.8558 109.202 27.8558L109.198 27.8545ZM111.11 30.3329C111.086 29.4744 110.481 28.7131 109.705 28.7131H109.233C108.543 28.7131 107.903 29.3179 107.708 30.3329H111.11Z" fill="white"/>
<path d="M109.198 27.8545H109.707C111.087 27.8545 112.104 29.1838 112.104 30.6958C112.104 30.9259 112.092 31.0469 112.08 31.1679H107.65C107.723 32.4617 108.413 33.2834 109.224 33.2834H109.696C110.459 33.2834 110.979 32.7273 111.1 32.0869H112.033C111.912 33.1993 110.968 34.142 109.709 34.142H109.214C107.786 34.142 106.648 32.7996 106.648 30.9628C106.648 29.1259 107.955 27.8558 109.202 27.8558L109.198 27.8545ZM111.11 30.3329C111.086 29.4744 110.481 28.7131 109.705 28.7131H109.233C108.543 28.7131 107.903 29.3179 107.708 30.3329H111.11Z" fill="url(#paint4_linear_6125_66271)"/>
<path d="M113.686 30.563V34.0447H112.719V27.9518H113.686V28.9313C113.88 28.3515 114.328 27.9518 114.921 27.9518H115.768V28.7854H114.836C114.098 28.7854 113.685 29.8491 113.685 30.563H113.686Z" fill="white"/>
<path d="M113.686 30.563V34.0447H112.719V27.9518H113.686V28.9313C113.88 28.3515 114.328 27.9518 114.921 27.9518H115.768V28.7854H114.836C114.098 28.7854 113.685 29.8491 113.685 30.563H113.686Z" fill="url(#paint5_linear_6125_66271)"/>
<path d="M116.258 25.6548H117.358V26.8881H116.258V25.6548ZM116.33 27.9518H117.298V34.0447H116.33V27.9518Z" fill="white"/>
<path d="M116.258 25.6548H117.358V26.8881H116.258V25.6548ZM116.33 27.9518H117.298V34.0447H116.33V27.9518Z" fill="url(#paint6_linear_6125_66271)"/>
<path d="M120.473 27.8545H120.981C122.362 27.8545 123.377 29.1838 123.377 30.6958C123.377 30.9259 123.365 31.0469 123.353 31.1679H118.924C118.996 32.4617 119.686 33.2834 120.498 33.2834H120.97C121.732 33.2834 122.253 32.7273 122.374 32.0869H123.306C123.185 33.1993 122.241 34.142 120.983 34.142H120.487C119.059 34.142 117.922 32.7996 117.922 30.9628C117.922 29.1259 119.229 27.8558 120.475 27.8558L120.473 27.8545ZM122.384 30.3329C122.361 29.4744 121.755 28.7131 120.98 28.7131H120.508C119.818 28.7131 119.178 29.3179 118.983 30.3329H122.384Z" fill="white"/>
<path d="M120.473 27.8545H120.981C122.362 27.8545 123.377 29.1838 123.377 30.6958C123.377 30.9259 123.365 31.0469 123.353 31.1679H118.924C118.996 32.4617 119.686 33.2834 120.498 33.2834H120.97C121.732 33.2834 122.253 32.7273 122.374 32.0869H123.306C123.185 33.1993 122.241 34.142 120.983 34.142H120.487C119.059 34.142 117.922 32.7996 117.922 30.9628C117.922 29.1259 119.229 27.8558 120.475 27.8558L120.473 27.8545ZM122.384 30.3329C122.361 29.4744 121.755 28.7131 120.98 28.7131H120.508C119.818 28.7131 119.178 29.3179 118.983 30.3329H122.384Z" fill="url(#paint7_linear_6125_66271)"/>
<path d="M124.055 27.9517H125.022V28.9799C125.313 28.3632 125.978 27.8557 126.692 27.8557H127.285C128.338 27.8557 129.173 28.8353 129.173 30.1646V34.0446H128.206V30.2605C128.206 29.3783 127.734 28.7248 127.031 28.7248H126.548C125.627 28.7248 125.022 29.728 125.022 30.7681V34.0446H124.055V27.9517Z" fill="white"/>
<path d="M124.055 27.9517H125.022V28.9799C125.313 28.3632 125.978 27.8557 126.692 27.8557H127.285C128.338 27.8557 129.173 28.8353 129.173 30.1646V34.0446H128.206V30.2605C128.206 29.3783 127.734 28.7248 127.031 28.7248H126.548C125.627 28.7248 125.022 29.728 125.022 30.7681V34.0446H124.055V27.9517Z" fill="url(#paint8_linear_6125_66271)"/>
<path d="M129.828 30.9982C129.828 29.3783 130.784 27.8557 132.467 27.8557H132.89C134.174 27.8557 135.13 28.8471 135.214 30.225H134.246C134.16 29.3914 133.653 28.713 132.89 28.713H132.454C131.389 28.713 130.833 29.7885 130.833 30.9982C130.833 32.2078 131.377 33.2833 132.442 33.2833H132.89C133.641 33.2833 134.088 32.618 134.246 31.8567H135.214C135.056 33.0651 134.221 34.1419 132.879 34.1419H132.455C130.76 34.1419 129.829 32.618 129.829 30.9995L129.828 30.9982Z" fill="white"/>
<path d="M129.828 30.9982C129.828 29.3783 130.784 27.8557 132.467 27.8557H132.89C134.174 27.8557 135.13 28.8471 135.214 30.225H134.246C134.16 29.3914 133.653 28.713 132.89 28.713H132.454C131.389 28.713 130.833 29.7885 130.833 30.9982C130.833 32.2078 131.377 33.2833 132.442 33.2833H132.89C133.641 33.2833 134.088 32.618 134.246 31.8567H135.214C135.056 33.0651 134.221 34.1419 132.879 34.1419H132.455C130.76 34.1419 129.829 32.618 129.829 30.9995L129.828 30.9982Z" fill="url(#paint9_linear_6125_66271)"/>
<path d="M138.301 27.8545H138.808C140.189 27.8545 141.205 29.1838 141.205 30.6958C141.205 30.9259 141.193 31.0469 141.182 31.1679H136.752C136.824 32.4617 137.514 33.2834 138.326 33.2834H138.798C139.56 33.2834 140.081 32.7273 140.202 32.0869H141.134C141.013 33.1993 140.069 34.142 138.811 34.142H138.315C136.887 34.142 135.75 32.7996 135.75 30.9628C135.75 29.1259 137.057 27.8558 138.303 27.8558L138.301 27.8545ZM140.213 30.3329C140.189 29.4744 139.583 28.7131 138.808 28.7131H138.336C137.646 28.7131 137.006 29.3179 136.811 30.3329H140.213Z" fill="white"/>
<path d="M138.301 27.8545H138.808C140.189 27.8545 141.205 29.1838 141.205 30.6958C141.205 30.9259 141.193 31.0469 141.182 31.1679H136.752C136.824 32.4617 137.514 33.2834 138.326 33.2834H138.798C139.56 33.2834 140.081 32.7273 140.202 32.0869H141.134C141.013 33.1993 140.069 34.142 138.811 34.142H138.315C136.887 34.142 135.75 32.7996 135.75 30.9628C135.75 29.1259 137.057 27.8558 138.303 27.8558L138.301 27.8545ZM140.213 30.3329C140.189 29.4744 139.583 28.7131 138.808 28.7131H138.336C137.646 28.7131 137.006 29.3179 136.811 30.3329H140.213Z" fill="url(#paint10_linear_6125_66271)"/>
<path d="M48.7891 25.5746H52.1958C53.7723 25.5746 54.7531 26.6041 54.7531 28.082C54.7531 29.5598 53.771 30.5893 52.1958 30.5893H49.8317V34.0526H48.7891V25.5759V25.5746ZM52.1103 29.6795C53.2621 29.6795 53.6986 28.9037 53.6986 28.0807C53.6986 27.2576 53.2503 26.4818 52.1103 26.4818H49.8317V29.6782H52.1103V29.6795Z" fill="white"/>
<path d="M48.7891 25.5746H52.1958C53.7723 25.5746 54.7531 26.6041 54.7531 28.082C54.7531 29.5598 53.771 30.5893 52.1958 30.5893H49.8317V34.0526H48.7891V25.5759V25.5746ZM52.1103 29.6795C53.2621 29.6795 53.6986 28.9037 53.6986 28.0807C53.6986 27.2576 53.2503 26.4818 52.1103 26.4818H49.8317V29.6782H52.1103V29.6795Z" fill="url(#paint11_linear_6125_66271)"/>
<path d="M54.8776 32.4524C54.8776 31.2532 55.7993 30.7207 57.0839 30.5025L58.8287 30.2119V30.1396C58.8287 29.2915 58.3567 28.7104 57.7137 28.7104H57.2049C56.5251 28.7104 56.0044 29.1337 55.9321 29.9095H54.9499C55.0472 28.638 56.0531 27.8505 57.2049 27.8505H57.7137C58.9865 27.8505 59.799 28.7958 59.799 30.1632V32.7061C59.799 33.1782 59.9687 33.215 60.5143 33.215V34.0499H59.8345C59.2771 34.0499 58.8524 33.808 58.876 33.0335C58.5486 33.6988 57.7492 34.1472 56.8394 34.1472C55.6389 34.1472 54.875 33.4937 54.875 32.4524H54.8776ZM56.9261 33.2873C58.0056 33.2873 58.83 32.5733 58.83 31.3979V31.01L57.2903 31.2887C56.4304 31.4465 55.8835 31.6516 55.8835 32.4024C55.8835 32.9481 56.32 33.286 56.9261 33.286V33.2873Z" fill="white"/>
<path d="M54.8776 32.4524C54.8776 31.2532 55.7993 30.7207 57.0839 30.5025L58.8287 30.2119V30.1396C58.8287 29.2915 58.3567 28.7104 57.7137 28.7104H57.2049C56.5251 28.7104 56.0044 29.1337 55.9321 29.9095H54.9499C55.0472 28.638 56.0531 27.8505 57.2049 27.8505H57.7137C58.9865 27.8505 59.799 28.7958 59.799 30.1632V32.7061C59.799 33.1782 59.9687 33.215 60.5143 33.215V34.0499H59.8345C59.2771 34.0499 58.8524 33.808 58.876 33.0335C58.5486 33.6988 57.7492 34.1472 56.8394 34.1472C55.6389 34.1472 54.875 33.4937 54.875 32.4524H54.8776ZM56.9261 33.2873C58.0056 33.2873 58.83 32.5733 58.83 31.3979V31.01L57.2903 31.2887C56.4304 31.4465 55.8835 31.6516 55.8835 32.4024C55.8835 32.9481 56.32 33.286 56.9261 33.286V33.2873Z" fill="url(#paint12_linear_6125_66271)"/>
<path d="M62.1562 34.1512L61.8275 33.2519L59.875 27.9479H60.8927L62.335 31.9686C62.456 32.296 62.6256 32.889 62.6256 32.889H62.6624C62.6624 32.889 62.8439 32.296 62.953 31.9686L64.3717 27.9479H65.3657L62.7834 35.1176C62.4442 36.038 61.9222 36.5232 61.1096 36.5232H60.443V35.7238H61.0123C61.7999 35.7238 61.9787 34.6627 62.1536 34.1526L62.1562 34.1512Z" fill="white"/>
<path d="M62.1562 34.1512L61.8275 33.2519L59.875 27.9479H60.8927L62.335 31.9686C62.456 32.296 62.6256 32.889 62.6256 32.889H62.6624C62.6624 32.889 62.8439 32.296 62.953 31.9686L64.3717 27.9479H65.3657L62.7834 35.1176C62.4442 36.038 61.9222 36.5232 61.1096 36.5232H60.443V35.7238H61.0123C61.7999 35.7238 61.9787 34.6627 62.1536 34.1526L62.1562 34.1512Z" fill="url(#paint13_linear_6125_66271)"/>
<path d="M65.3125 32.2947H66.2828C66.3552 32.9127 66.8771 33.2874 67.4465 33.2874H67.9316C68.4773 33.2874 69.0111 33.0337 69.0111 32.3552C69.0111 31.8346 68.7205 31.5558 68.1026 31.4467L66.9876 31.2416C65.9699 31.0483 65.4598 30.479 65.4598 29.6072C65.4598 28.5541 66.3933 27.8638 67.3755 27.8638H67.8975C68.8796 27.8638 69.825 28.5659 69.8487 29.6072H68.8902C68.8547 29.1115 68.405 28.7224 67.8843 28.7224H67.3873C66.8785 28.7224 66.4538 29.0011 66.4538 29.5454C66.4538 29.957 66.697 30.2725 67.2532 30.3804L68.4168 30.6105C69.3503 30.7919 70.0051 31.143 70.0051 32.2934C70.0051 33.4439 69.0111 34.146 67.9685 34.146H67.4465C66.3433 34.146 65.3611 33.4202 65.3125 32.2934V32.2947Z" fill="white"/>
<path d="M65.3125 32.2947H66.2828C66.3552 32.9127 66.8771 33.2874 67.4465 33.2874H67.9316C68.4773 33.2874 69.0111 33.0337 69.0111 32.3552C69.0111 31.8346 68.7205 31.5558 68.1026 31.4467L66.9876 31.2416C65.9699 31.0483 65.4598 30.479 65.4598 29.6072C65.4598 28.5541 66.3933 27.8638 67.3755 27.8638H67.8975C68.8796 27.8638 69.825 28.5659 69.8487 29.6072H68.8902C68.8547 29.1115 68.405 28.7224 67.8843 28.7224H67.3873C66.8785 28.7224 66.4538 29.0011 66.4538 29.5454C66.4538 29.957 66.697 30.2725 67.2532 30.3804L68.4168 30.6105C69.3503 30.7919 70.0051 31.143 70.0051 32.2934C70.0051 33.4439 69.0111 34.146 67.9685 34.146H67.4465C66.3433 34.146 65.3611 33.4202 65.3125 32.2934V32.2947Z" fill="url(#paint14_linear_6125_66271)"/>
<path d="M76.8957 28.9169H75.5625V28.082H76.8957V27.1498C76.8957 26.1452 77.3441 25.5746 78.3618 25.5746H79.7068V26.4095H78.6037C78.1067 26.4095 77.8648 26.6146 77.8648 27.2326V28.0807H79.8291V28.9156H77.8648V34.05H76.8944V28.9156L76.8957 28.9169Z" fill="white"/>
<path d="M76.8957 28.9169H75.5625V28.082H76.8957V27.1498C76.8957 26.1452 77.3441 25.5746 78.3618 25.5746H79.7068V26.4095H78.6037C78.1067 26.4095 77.8648 26.6146 77.8648 27.2326V28.0807H79.8291V28.9156H77.8648V34.05H76.8944V28.9156L76.8957 28.9169Z" fill="url(#paint15_linear_6125_66271)"/>
<path d="M82.2279 27.8519H82.7367C84.1186 27.8519 85.1376 29.1839 85.1376 30.6985C85.1376 30.9286 85.1258 31.0496 85.114 31.1706H80.6777C80.75 32.4657 81.4416 33.2901 82.2529 33.2901H82.7262C83.4901 33.2901 84.0108 32.7326 84.1331 32.0909H85.0666C84.9457 33.2046 84.0003 34.15 82.7394 34.15H82.2424C80.8118 34.15 79.6719 32.8062 79.6719 30.9654C79.6719 29.1247 80.9814 27.8532 82.2292 27.8532L82.2279 27.8519ZM84.1436 30.3343C84.1199 29.4744 83.5138 28.7118 82.7367 28.7118H82.2634C81.5718 28.7118 80.9302 29.318 80.7356 30.3343H84.1423H84.1436Z" fill="white"/>
<path d="M82.2279 27.8519H82.7367C84.1186 27.8519 85.1376 29.1839 85.1376 30.6985C85.1376 30.9286 85.1258 31.0496 85.114 31.1706H80.6777C80.75 32.4657 81.4416 33.2901 82.2529 33.2901H82.7262C83.4901 33.2901 84.0108 32.7326 84.1331 32.0909H85.0666C84.9457 33.2046 84.0003 34.15 82.7394 34.15H82.2424C80.8118 34.15 79.6719 32.8062 79.6719 30.9654C79.6719 29.1247 80.9814 27.8532 82.2292 27.8532L82.2279 27.8519ZM84.1436 30.3343C84.1199 29.4744 83.5138 28.7118 82.7367 28.7118H82.2634C81.5718 28.7118 80.9302 29.318 80.7356 30.3343H84.1423H84.1436Z" fill="url(#paint16_linear_6125_66271)"/>
<path d="M75.329 32.7061V30.1632C75.329 28.7945 74.5164 27.8505 73.2436 27.8505H72.7348C71.6777 27.8505 70.7455 28.5145 70.5233 29.6058H71.5186C71.6843 29.0246 72.151 28.709 72.7348 28.709H73.2436C73.8866 28.709 74.3586 29.2902 74.3586 30.1383V30.2106L72.6125 30.5012C71.3279 30.7194 70.4062 31.2519 70.4062 32.4511C70.4062 33.4924 71.1702 34.1459 72.3706 34.1459C73.2792 34.1459 74.0799 33.6975 74.4073 33.0322C74.3836 33.808 74.807 34.0486 75.3658 34.0486H76.0456V33.2137C75.4999 33.2137 75.3303 33.1782 75.3303 32.7048L75.329 32.7061ZM74.3586 31.3979C74.3586 32.572 73.5342 33.2873 72.4547 33.2873C71.8486 33.2873 71.4121 32.9481 71.4121 32.4037C71.4121 31.653 71.9577 31.4465 72.819 31.2901L74.3586 31.0113V31.3992V31.3979Z" fill="white"/>
<path d="M75.329 32.7061V30.1632C75.329 28.7945 74.5164 27.8505 73.2436 27.8505H72.7348C71.6777 27.8505 70.7455 28.5145 70.5233 29.6058H71.5186C71.6843 29.0246 72.151 28.709 72.7348 28.709H73.2436C73.8866 28.709 74.3586 29.2902 74.3586 30.1383V30.2106L72.6125 30.5012C71.3279 30.7194 70.4062 31.2519 70.4062 32.4511C70.4062 33.4924 71.1702 34.1459 72.3706 34.1459C73.2792 34.1459 74.0799 33.6975 74.4073 33.0322C74.3836 33.808 74.807 34.0486 75.3658 34.0486H76.0456V33.2137C75.4999 33.2137 75.3303 33.1782 75.3303 32.7048L75.329 32.7061ZM74.3586 31.3979C74.3586 32.572 73.5342 33.2873 72.4547 33.2873C71.8486 33.2873 71.4121 32.9481 71.4121 32.4037C71.4121 31.653 71.9577 31.4465 72.819 31.2901L74.3586 31.0113V31.3992V31.3979Z" fill="url(#paint17_linear_6125_66271)"/>
</g>
<path d="M122.023 9.47988C122.023 3.33316 126.104 0.0557861 129.908 0.0557861H131.276C135.12 0.0557861 137.818 3.08308 138.173 6.93958H134.962C134.751 4.64937 133.264 2.91197 131.316 2.91197H129.921C127.657 2.91197 125.393 5.34697 125.393 9.47988C125.393 13.6128 127.578 16.0478 129.881 16.0478H131.237C133.198 16.0478 134.699 14.2314 134.975 12.0202H138.187C137.884 15.9425 134.62 18.904 131.237 18.904H129.881C125.946 18.904 122.023 15.6134 122.023 9.47988Z" fill="white"/>
<path d="M155.702 11.2986V18.7088H152.609V5.44153H155.702V7.27104C156.189 6.12595 157.137 5.44153 158.374 5.44153H160.072V8.03444H158.137C156.597 8.03444 155.702 9.75866 155.702 11.2986Z" fill="white"/>
<path d="M29.2329 9.51622V9.52675C29.2329 9.62942 29.1921 9.72814 29.1198 9.80053L19.9339 18.9864C19.897 19.0232 19.8483 19.043 19.797 19.043H19.7391C19.6325 19.043 19.5456 18.9561 19.5456 18.8495V9.52675C19.5456 9.62942 19.5048 9.72814 19.4324 9.80053L10.3032 18.9298C10.2308 19.0022 10.1321 19.043 10.0294 19.043H10.0189C9.91619 19.043 9.81748 19.0022 9.74508 18.9298L0.613194 9.80184C0.540803 9.72945 0.5 9.63073 0.5 9.52807V9.51754C0.5 9.41488 0.540803 9.31616 0.613194 9.24377L9.74245 0.113194C9.81485 0.0408026 9.91356 0 10.0162 0H10.0268C10.1294 0 10.2281 0.0408026 10.3005 0.113194L19.4298 9.24245C19.5022 9.31484 19.543 9.41356 19.543 9.51622V0.193483C19.543 0.0868701 19.6299 0 19.7365 0H19.7944C19.8457 0 19.8944 0.0210594 19.9313 0.0565972L29.1171 9.24245C29.1895 9.31484 29.2303 9.41356 29.2303 9.51622H29.2329Z" fill="white"/>
<path d="M49.6668 1.0228C48.7928 0.542381 47.7662 0.301514 46.5868 0.301514H38.9844V18.6522H42.2881V11.6131H46.5881C47.7675 11.6131 48.7941 11.3722 49.6681 10.8918C50.542 10.4114 51.2107 9.74535 51.674 8.89244C52.1373 8.04085 52.369 7.06422 52.369 5.96255C52.369 4.86088 52.1373 3.88293 51.674 3.02608C51.2107 2.16922 50.542 1.5019 49.6681 1.02017L49.6668 1.0228ZM48.723 7.38669C48.5217 7.81051 48.2137 8.14746 47.7991 8.39623C47.3844 8.64499 46.8619 8.77003 46.2328 8.77003H42.2868V3.14585H46.2328C47.1594 3.14585 47.8557 3.41041 48.3229 3.93953C48.7902 4.46865 49.0245 5.14386 49.0245 5.96518C49.0245 6.49035 48.9244 6.96419 48.723 7.38801V7.38669ZM76.4807 5.44001L70.9486 20.7502C70.5472 21.869 70.0181 22.6903 69.3626 23.2142C68.7071 23.738 67.8897 23.9999 66.9118 23.9999H65.2284V21.4439H66.6749C67.129 21.4439 67.5054 21.2846 67.8016 20.9661C68.099 20.6475 68.6229 19.2945 68.7545 18.8628L63.8569 5.44001H67.0553L70.2273 14.9168C70.4366 14.1389 73.3376 5.44001 73.3376 5.44001H76.4794H76.4807ZM86.1548 12.1185C86.7142 12.6818 86.9933 13.5453 86.9933 14.7075C86.9933 15.5117 86.7814 16.2277 86.3575 16.8569C85.9337 17.486 85.3638 17.9783 84.6465 18.331C83.9304 18.6851 83.1526 18.8614 82.3128 18.8614H81.2375C80.3727 18.8614 79.5659 18.6956 78.8196 18.3626C78.072 18.0309 77.4652 17.5716 77.044 16.9213C76.6097 16.2514 76.4056 15.3577 76.3885 14.535H79.429C79.4816 15.0681 79.5751 15.7289 79.9463 16.0421C80.3648 16.3949 80.7834 16.4883 81.2638 16.4883H82.1549C82.6445 16.4883 83.0552 16.3659 83.3868 16.1211C83.7185 15.8763 83.8844 15.4959 83.8844 14.9812C83.8844 14.5443 83.758 14.206 83.504 13.9651C83.25 13.7256 82.8617 13.5571 82.3378 13.461L79.8081 12.9635C78.7511 12.7542 77.9443 12.3278 77.3902 11.6854C76.8347 11.0431 76.5583 10.2284 76.5583 9.24124C76.5583 8.47257 76.7637 7.78156 77.1743 7.17083C77.585 6.55879 78.1352 6.08759 78.8262 5.75459C79.5159 5.4229 80.2595 5.25706 81.0545 5.25706H82.064C82.8683 5.25706 83.6145 5.41895 84.3056 5.74143C84.9953 6.06521 85.5546 6.52194 85.9837 7.1116C86.4115 7.70127 86.6353 8.77398 86.6524 9.54265H83.6896C83.654 9.08856 83.5764 8.4423 83.1986 8.08165C82.8367 7.73681 82.4484 7.61571 82.0114 7.61571H81.1598C80.7136 7.61571 80.3477 7.73549 80.0581 7.97636C79.7699 8.21722 79.6251 8.54628 79.6251 8.96615C79.6251 9.30705 79.7449 9.60451 79.9857 9.85723C80.2253 10.1113 80.578 10.285 81.0414 10.3811L83.6238 10.9181C84.7504 11.1537 85.5941 11.5538 86.1535 12.1172L86.1548 12.1185ZM99.1472 15.7368C99.0419 15.5933 98.9892 15.3722 98.9892 15.0747V10.1586C98.9892 9.24124 98.7918 8.40413 98.3996 7.64862C98.006 6.89311 97.4387 6.30082 96.6951 5.87305C95.9514 5.44528 95.0788 5.23073 94.0732 5.23073H93.1163C92.2252 5.23073 91.3947 5.41632 90.626 5.78749C89.8573 6.15866 89.2282 6.68515 88.7386 7.36695C88.2489 8.04875 88.0476 8.66868 87.9778 9.54265H91.0577C91.1012 8.93061 91.2407 8.58181 91.6342 8.2317C92.0278 7.88291 92.5385 7.73417 93.115 7.73417H94.0719C94.4036 7.73417 94.7142 7.83289 95.0024 8.029C95.2907 8.22644 95.5184 8.50152 95.6842 8.85427C95.8501 9.20833 95.933 9.60451 95.933 10.0402V10.3034L92.4332 10.8273C91.0261 11.055 89.9008 11.513 89.0584 12.204C88.2147 12.895 87.7935 13.8388 87.7935 15.0352C87.7935 15.8052 87.9752 16.4778 88.3371 17.0543C88.6991 17.6308 89.2137 18.077 89.8771 18.3916C90.5418 18.7061 91.3104 18.8641 92.1844 18.8641C93.1189 18.8641 93.9455 18.6811 94.6615 18.3139C95.3775 17.9467 95.9067 17.4452 96.2476 16.8068C96.2818 17.4452 96.4897 17.9125 96.8701 18.2099C97.2505 18.5074 97.7678 18.6561 98.4233 18.6561H100.482V16.0737C100.088 16.0737 99.7934 16.054 99.5973 16.0145C99.3999 15.975 99.2498 15.8842 99.1446 15.7394L99.1472 15.7368ZM95.9356 13.1741C95.9356 13.8203 95.8027 14.3929 95.5355 14.8917C95.2683 15.3906 94.8932 15.7762 94.4088 16.0513C93.9231 16.3264 93.3664 16.4646 92.7372 16.4646C92.2042 16.4646 91.7672 16.3212 91.4263 16.0316C91.0854 15.7433 90.9156 15.3669 90.9156 14.9036C90.9156 14.3271 91.1051 13.9059 91.4855 13.6387C91.8659 13.3728 92.4529 13.1688 93.2479 13.0293L95.9356 12.5318V13.1741ZM65.3468 16.0711C64.9533 16.0711 64.6584 16.0513 64.4623 16.0118C64.2649 15.9724 64.1148 15.8815 64.0095 15.7368C63.9042 15.5933 63.8516 15.3722 63.8516 15.0747V10.1586C63.8516 9.24124 63.6542 8.40413 63.2619 7.64862C62.8684 6.89311 62.3011 6.30082 61.5574 5.87305C60.8138 5.44528 59.9411 5.23073 58.9355 5.23073H57.9787C57.0876 5.23073 56.257 5.41632 55.4884 5.78749C54.7197 6.15866 54.0906 6.68515 53.6009 7.36695C53.1113 8.04875 52.9099 8.66868 52.8402 9.54265H55.9201C55.9635 8.93061 56.103 8.58181 56.4966 8.2317C56.8901 7.88291 57.4008 7.73417 57.9773 7.73417H58.9342C59.2659 7.73417 59.5765 7.83289 59.8648 8.029C60.153 8.22644 60.3807 8.50152 60.5466 8.85427C60.7124 9.20833 60.7953 9.60451 60.7953 10.0402V10.3034L57.2955 10.8273C55.8885 11.055 54.7631 11.513 53.9208 12.204C53.0771 12.895 52.6559 13.8388 52.6559 15.0352C52.6559 15.8052 52.8375 16.4778 53.1995 17.0543C53.5614 17.6308 54.0761 18.077 54.7395 18.3916C55.4041 18.7061 56.1728 18.8641 57.0468 18.8641C57.9813 18.8641 58.8079 18.6811 59.5239 18.3139C60.2399 17.9467 60.769 17.4452 61.1099 16.8068C61.1441 17.4452 61.3521 17.9125 61.7325 18.2099C62.1129 18.5074 62.6302 18.6561 63.2856 18.6561H65.3442V16.0737L65.3468 16.0711ZM60.798 13.1741C60.798 13.8203 60.665 14.3929 60.3979 14.8917C60.1307 15.3906 59.7555 15.7762 59.2712 16.0513C58.7855 16.3264 58.2287 16.4646 57.5996 16.4646C57.0665 16.4646 56.6295 16.3212 56.2886 16.0316C55.9477 15.7433 55.7779 15.3669 55.7779 14.9036C55.7779 14.3271 55.9675 13.9059 56.3479 13.6387C56.7283 13.3728 57.3153 13.1688 58.1103 13.0293L60.798 12.5318V13.1741ZM108.865 7.9961H105.273V18.6535H102.193V7.9961H99.6237V5.44001H102.193V4.19487C102.193 2.92736 102.511 1.96258 103.15 1.29789C103.788 0.634516 104.683 0.301514 105.837 0.301514H108.866V2.8576H106.769C106.263 2.8576 105.886 2.99054 105.643 3.25773C105.398 3.52492 105.275 3.93295 105.275 4.48312V5.44001H108.867V7.9961H108.865ZM118.315 6.08232C117.494 5.51504 116.567 5.23073 115.537 5.23073H114.527C113.548 5.23073 112.62 5.50846 111.742 6.06258C110.864 6.61802 110.153 7.41565 109.612 8.45414C109.07 9.49395 108.8 10.6785 108.8 12.0066C108.8 13.3347 109.052 14.5087 109.554 15.5525C110.057 16.5962 110.752 17.4097 111.638 17.9901C112.525 18.5719 113.506 18.8614 114.581 18.8614H115.551C116.469 18.8614 117.314 18.6601 118.087 18.2586C118.861 17.8572 119.496 17.3044 119.995 16.6002C120.492 15.8973 120.786 15.1129 120.873 14.2468H117.936C117.823 14.8233 117.549 15.3063 117.117 15.6946C116.684 16.0842 116.171 16.2777 115.577 16.2777H114.607C114.101 16.2777 113.64 16.1013 113.224 15.7473C112.809 15.3932 112.479 14.8865 112.234 14.2271C112.066 13.7716 111.957 13.2662 111.904 12.7134H120.938C120.948 12.6213 120.991 11.8789 120.991 11.5736C120.991 10.4206 120.75 9.35838 120.27 8.38833C119.789 7.41828 119.138 6.64961 118.317 6.08101L118.315 6.08232ZM112.018 10.4469C112.08 10.1705 112.161 9.90724 112.259 9.66111C112.521 9.00564 112.865 8.50811 113.289 8.16721C113.712 7.82631 114.156 7.65652 114.619 7.65652H115.537C115.947 7.65652 116.332 7.77892 116.69 8.02374C117.048 8.26856 117.335 8.60682 117.548 9.03986C117.761 9.47289 117.877 9.94278 117.895 10.4495H112.018V10.4469Z" fill="white"/>
<path d="M150.673 16.0092C150.476 15.9698 150.326 15.8789 150.221 15.7342C150.115 15.5907 150.063 15.3696 150.063 15.0721V10.1561C150.063 9.23873 149.865 8.40162 149.473 7.64613C149.08 6.89063 148.512 6.29834 147.769 5.87058C147.025 5.44281 146.152 5.22827 145.147 5.22827H144.19C143.299 5.22827 142.468 5.41386 141.7 5.78502C140.931 6.15619 140.302 6.68267 139.812 7.36446C139.323 8.04625 139.121 8.66618 139.051 9.54013H142.131C142.175 8.9281 142.314 8.57931 142.708 8.2292C143.101 7.88041 143.612 7.73168 144.189 7.73168H145.145C145.477 7.73168 145.788 7.83039 146.076 8.02651C146.364 8.22394 146.592 8.49902 146.758 8.85176C146.924 9.20582 147.007 9.602 147.007 10.0377V10.3009L143.507 10.8247C142.1 11.0524 140.974 11.5105 140.132 12.2015C139.288 12.8925 138.867 13.8362 138.867 15.0326C138.867 15.8013 139.049 16.4752 139.411 17.0517C139.773 17.6282 140.287 18.0744 140.951 18.3889C141.614 18.7035 142.384 18.8614 143.258 18.8614C144.193 18.8614 145.019 18.6785 145.735 18.3113C146.451 17.9441 146.98 17.4426 147.321 16.8042C147.355 17.4426 147.563 17.9098 147.944 18.2073C148.324 18.5048 148.841 18.6535 149.497 18.6535H151.555V16.0711C151.162 16.0711 150.867 16.0514 150.671 16.0119L150.673 16.0092ZM147.009 13.1715C147.009 13.8178 146.876 14.3903 146.609 14.8892C146.342 15.388 145.967 15.7736 145.482 16.0487C144.997 16.3238 144.44 16.462 143.811 16.462C143.278 16.462 142.841 16.3186 142.5 16.029C142.159 15.7407 141.989 15.3643 141.989 14.901C141.989 14.3245 142.179 13.9033 142.559 13.6361C142.94 13.3703 143.527 13.1663 144.323 13.0267L147.011 12.5292V13.1715H147.009Z" fill="white"/>
<path d="M165.9 16.204H166.782C168.388 16.204 169.665 14.4798 169.665 12.0184C169.665 9.55713 168.388 7.83289 166.782 7.83289H165.9C164.387 7.83289 163.031 9.54397 163.031 12.0184C163.031 14.4929 164.374 16.204 165.9 16.204ZM159.898 12.0184C159.898 8.22775 162.136 5.17414 165.519 5.17414H166.322C167.493 5.17414 168.809 5.97703 169.441 6.93786V0.301514H172.521V18.6522H169.441V17.1254C168.704 18.1388 167.243 18.8628 166.229 18.8628H165.466C162.254 18.8628 159.898 15.6907 159.898 12.0184Z" fill="white"/>
<defs>
<linearGradient id="paint0_linear_6125_66271" x1="41.518" y1="25.5824" x2="41.518" y2="34.0446" gradientUnits="userSpaceOnUse">
<stop stop-color="white"/>
<stop offset="1" stop-color="white" stop-opacity="0"/>
</linearGradient>
<linearGradient id="paint1_linear_6125_66271" x1="91.7955" y1="25.5824" x2="91.7955" y2="34.046" gradientUnits="userSpaceOnUse">
<stop stop-color="white"/>
<stop offset="1" stop-color="white" stop-opacity="0"/>
</linearGradient>
<linearGradient id="paint2_linear_6125_66271" x1="97.5361" y1="27.9518" x2="97.5361" y2="34.0447" gradientUnits="userSpaceOnUse">
<stop stop-color="white"/>
<stop offset="1" stop-color="white" stop-opacity="0"/>
</linearGradient>
<linearGradient id="paint3_linear_6125_66271" x1="103.414" y1="27.8531" x2="103.414" y2="36.51" gradientUnits="userSpaceOnUse">
<stop stop-color="white"/>
<stop offset="1" stop-color="white" stop-opacity="0"/>
</linearGradient>
<linearGradient id="paint4_linear_6125_66271" x1="109.376" y1="27.8545" x2="109.376" y2="34.142" gradientUnits="userSpaceOnUse">
<stop stop-color="white"/>
<stop offset="1" stop-color="white" stop-opacity="0"/>
</linearGradient>
<linearGradient id="paint5_linear_6125_66271" x1="114.243" y1="27.9518" x2="114.243" y2="34.0447" gradientUnits="userSpaceOnUse">
<stop stop-color="white"/>
<stop offset="1" stop-color="white" stop-opacity="0"/>
</linearGradient>
<linearGradient id="paint6_linear_6125_66271" x1="116.808" y1="25.6548" x2="116.808" y2="34.0447" gradientUnits="userSpaceOnUse">
<stop stop-color="white"/>
<stop offset="1" stop-color="white" stop-opacity="0"/>
</linearGradient>
<linearGradient id="paint7_linear_6125_66271" x1="120.649" y1="27.8545" x2="120.649" y2="34.142" gradientUnits="userSpaceOnUse">
<stop stop-color="white"/>
<stop offset="1" stop-color="white" stop-opacity="0"/>
</linearGradient>
<linearGradient id="paint8_linear_6125_66271" x1="126.614" y1="27.8557" x2="126.614" y2="34.0446" gradientUnits="userSpaceOnUse">
<stop stop-color="white"/>
<stop offset="1" stop-color="white" stop-opacity="0"/>
</linearGradient>
<linearGradient id="paint9_linear_6125_66271" x1="132.521" y1="27.8557" x2="132.521" y2="34.1419" gradientUnits="userSpaceOnUse">
<stop stop-color="white"/>
<stop offset="1" stop-color="white" stop-opacity="0"/>
</linearGradient>
<linearGradient id="paint10_linear_6125_66271" x1="138.478" y1="27.8545" x2="138.478" y2="34.142" gradientUnits="userSpaceOnUse">
<stop stop-color="white"/>
<stop offset="1" stop-color="white" stop-opacity="0"/>
</linearGradient>
<linearGradient id="paint11_linear_6125_66271" x1="51.7711" y1="25.5746" x2="51.7711" y2="34.0526" gradientUnits="userSpaceOnUse">
<stop stop-color="white"/>
<stop offset="1" stop-color="white" stop-opacity="0"/>
</linearGradient>
<linearGradient id="paint12_linear_6125_66271" x1="57.6947" y1="27.8505" x2="57.6947" y2="34.1472" gradientUnits="userSpaceOnUse">
<stop stop-color="white"/>
<stop offset="1" stop-color="white" stop-opacity="0"/>
</linearGradient>
<linearGradient id="paint13_linear_6125_66271" x1="62.6204" y1="27.9479" x2="62.6204" y2="36.5232" gradientUnits="userSpaceOnUse">
<stop stop-color="white"/>
<stop offset="1" stop-color="white" stop-opacity="0"/>
</linearGradient>
<linearGradient id="paint14_linear_6125_66271" x1="67.6588" y1="27.8638" x2="67.6588" y2="34.146" gradientUnits="userSpaceOnUse">
<stop stop-color="white"/>
<stop offset="1" stop-color="white" stop-opacity="0"/>
</linearGradient>
<linearGradient id="paint15_linear_6125_66271" x1="77.6958" y1="25.5746" x2="77.6958" y2="34.05" gradientUnits="userSpaceOnUse">
<stop stop-color="white"/>
<stop offset="1" stop-color="white" stop-opacity="0"/>
</linearGradient>
<linearGradient id="paint16_linear_6125_66271" x1="82.4048" y1="27.8519" x2="82.4048" y2="34.15" gradientUnits="userSpaceOnUse">
<stop stop-color="white"/>
<stop offset="1" stop-color="white" stop-opacity="0"/>
</linearGradient>
<linearGradient id="paint17_linear_6125_66271" x1="73.2259" y1="27.8505" x2="73.2259" y2="34.1459" gradientUnits="userSpaceOnUse">
<stop stop-color="white"/>
<stop offset="1" stop-color="white" stop-opacity="0"/>
</linearGradient>
<clipPath id="clip0_6125_66271">
<rect width="177.893" height="36.522" fill="white" transform="translate(0.5)"/>
</clipPath>
</defs>
</svg>
