<svg width="141" height="46" viewBox="0 0 141 46" fill="none" xmlns="http://www.w3.org/2000/svg">
<g id="Skrill-Logo with tagline" clip-path="url(#clip0_6696_120766)">
<g id="Group 427320507">
<g id="Lager 2">
<path id="Vector" d="M41.5783 13.8951V13.9099C41.5783 14.055 41.5207 14.1944 41.4184 14.2967L28.4431 27.272C28.3911 27.324 28.3223 27.3519 28.2498 27.3519H28.168C28.0174 27.3519 27.8947 27.2292 27.8947 27.0786V13.9099C27.8947 14.055 27.837 14.1944 27.7348 14.2967L14.8394 27.192C14.7372 27.2943 14.5977 27.3519 14.4527 27.3519H14.4379C14.2928 27.3519 14.1534 27.2943 14.0511 27.192L1.15208 14.2985C1.04982 14.1963 0.992188 14.0568 0.992188 13.9118V13.8969C0.992188 13.7519 1.04982 13.6125 1.15208 13.5102L14.0474 0.613015C14.1497 0.51076 14.2891 0.453125 14.4341 0.453125H14.449C14.594 0.453125 14.7335 0.51076 14.8357 0.613015L27.7311 13.5084C27.8333 13.6106 27.891 13.7501 27.891 13.8951V0.726426C27.891 0.575832 28.0137 0.453125 28.1643 0.453125H28.2461C28.3186 0.453125 28.3874 0.482872 28.4394 0.53307L41.4147 13.5084C41.517 13.6106 41.5746 13.7501 41.5746 13.8951H41.5783Z" fill="#F5F5F0"/>
</g>
<g id="Group">
<path id="Vector_2" d="M55.3906 19.1697H60.0234C60.206 21.5378 61.6644 23.1595 63.9449 23.1595H65.6776C67.3194 23.1595 69.2155 22.0484 69.2155 19.7528C69.2155 14.3054 55.7558 17.6755 55.7558 8.20166C55.7558 3.90206 59.3121 1.02344 63.4521 1.02344H65.294C69.4523 1.02344 72.8085 3.53723 73.2279 8.34742H68.6502C68.3583 6.12516 67.1543 4.97737 65.1848 4.97737H63.5071C61.9203 4.97737 60.4069 6.07018 60.4069 7.91097C60.4069 13.34 73.8666 9.62348 73.8666 19.5346C73.8666 24.2348 70.2553 27.1134 65.55 27.1134H63.7264C59.0937 27.1134 55.6283 23.9433 55.3915 19.1697H55.3906Z" fill="#F5F5F0"/>
<path id="Vector_3" d="M75.3125 26.8215V1.28125H79.5984V15.1604L86.2373 8.45614H91.6539L84.7781 15.3245L92.2559 26.8207H87.2404L81.6963 18.5855L79.5992 20.6628V26.8207H75.3133L75.3125 26.8215Z" fill="#F5F5F0"/>
<path id="Vector_4" d="M97.1218 16.5679V26.8255H92.8359V8.46094H97.1218V10.9931C97.7964 9.40798 99.1097 8.46094 100.824 8.46094H103.177V12.0501H100.496C98.3626 12.0501 97.1226 14.4364 97.1226 16.5679H97.1218Z" fill="#F5F5F0"/>
<path id="Vector_5" d="M104.703 8.46094H108.989V26.8255H104.703V8.46094Z" fill="#F5F5F0"/>
<path id="Vector_6" d="M111.453 1.28125H115.721V26.8207H111.453V1.28125Z" fill="#F5F5F0"/>
<path id="Vector_7" d="M118 1.28125H122.268V26.8207H118V1.28125Z" fill="#F5F5F0"/>
<path id="Vector_8" d="M109.172 1.28125H104.539V5.79992H109.172V1.28125Z" fill="#F5F5F0"/>
</g>
<g id="Group 427319957">
<g id="Group_2">
<path id="Vector_9" d="M57.8831 35.7266H58.7673L61.3691 42.7512H60.455L59.7718 40.8644H56.8586L56.1754 42.7512H55.2812L57.8831 35.7266ZM58.0541 37.5628L57.13 40.1116H59.5009L58.5768 37.5628C58.4864 37.3117 58.3359 36.77 58.3359 36.77H58.306C58.306 36.77 58.145 37.3017 58.0546 37.5628H58.0541Z" fill="#F5F5F0"/>
<path id="Vector_10" d="M97.7812 35.7266H102.322V36.4794H98.6449V38.7271H102.171V39.48H98.6449V41.9988H102.332V42.7517H97.7812V35.7271V35.7266Z" fill="#F5F5F0"/>
<path id="Vector_11" d="M102.625 42.7528L104.383 40.1137L102.786 37.6953H103.68L104.826 39.4517L105.981 37.6953H106.865L105.268 40.0938L107.016 42.7533H106.122L104.816 40.7563L103.5 42.7533H102.626L102.625 42.7528Z" fill="#F5F5F0"/>
<path id="Vector_12" d="M112.022 40.2263C112.022 41.7116 111.128 42.8355 109.872 42.8355H109.551C109.038 42.8355 108.476 42.474 108.194 42.0326V44.8025H107.391V37.6976H108.194V38.42C108.466 37.9787 109.038 37.6172 109.571 37.6172H109.882C111.118 37.6172 112.022 38.7715 112.022 40.2263ZM109.46 42.123H109.852C110.525 42.123 111.188 41.3701 111.188 40.2263C111.188 39.0825 110.524 38.3296 109.852 38.3296H109.46C108.727 38.3296 108.124 39.0925 108.124 40.2263C108.124 41.3601 108.727 42.123 109.46 42.123Z" fill="#F5F5F0"/>
<path id="Vector_13" d="M114.51 37.6172H114.932C116.077 37.6172 116.921 38.7211 116.921 39.9757C116.921 40.1664 116.911 40.2668 116.901 40.3671H113.224C113.284 41.441 113.857 42.1235 114.53 42.1235H114.922C115.554 42.1235 115.987 41.6617 116.087 41.13H116.861C116.76 42.0531 115.977 42.836 114.932 42.836H114.52C113.335 42.836 112.391 41.7221 112.391 40.1969C112.391 38.6716 113.476 37.6177 114.51 37.6177L114.51 37.6172ZM116.097 39.6746C116.077 38.9622 115.575 38.3301 114.932 38.3301H114.54C113.967 38.3301 113.435 38.8319 113.274 39.6746H116.097H116.097Z" fill="#F5F5F0"/>
<path id="Vector_14" d="M118.233 39.8631V42.7533H117.43V37.6953H118.233V38.5081C118.394 38.0263 118.766 37.6953 119.258 37.6953H119.961V38.3878H119.187C118.575 38.3878 118.233 39.271 118.233 39.8631H118.233Z" fill="#F5F5F0"/>
<path id="Vector_15" d="M120.359 35.7812H121.273V36.8047H120.359V35.7812ZM120.42 37.6879H121.224V42.7459H120.42V37.6879Z" fill="#F5F5F0"/>
<path id="Vector_16" d="M123.869 37.6172H124.291C125.436 37.6172 126.28 38.7211 126.28 39.9757C126.28 40.1664 126.27 40.2668 126.26 40.3671H122.583C122.644 41.441 123.216 42.1235 123.889 42.1235H124.281C124.914 42.1235 125.346 41.6617 125.446 41.13H126.22C126.12 42.0531 125.336 42.836 124.291 42.836H123.88C122.694 42.836 121.75 41.7221 121.75 40.1969C121.75 38.6716 122.835 37.6177 123.87 37.6177L123.869 37.6172ZM125.456 39.6746C125.436 38.9622 124.934 38.3301 124.291 38.3301H123.899C123.326 38.3301 122.794 38.8319 122.633 39.6746H125.456H125.456Z" fill="#F5F5F0"/>
<path id="Vector_17" d="M126.844 37.6971H127.647V38.5503C127.888 38.0386 128.441 37.6172 129.034 37.6172H129.526C130.4 37.6172 131.093 38.43 131.093 39.5338V42.7551H130.29V39.6142C130.29 38.8818 129.898 38.3396 129.315 38.3396H128.913C128.15 38.3396 127.647 39.1724 127.647 40.0356V42.7551H126.844V37.6971Z" fill="#F5F5F0"/>
<path id="Vector_18" d="M131.625 40.2263C131.625 38.8818 132.419 37.6172 133.815 37.6172H134.167C135.232 37.6172 136.026 38.44 136.096 39.5843H135.292C135.221 38.8918 134.8 38.3296 134.167 38.3296H133.805C132.921 38.3296 132.459 39.2228 132.459 40.2263C132.459 41.2298 132.911 42.123 133.795 42.123H134.167C134.79 42.123 135.161 41.5708 135.292 40.9388H136.096C135.965 41.9423 135.272 42.8355 134.157 42.8355H133.805C132.399 42.8355 131.625 41.5708 131.625 40.2263Z" fill="#F5F5F0"/>
<path id="Vector_19" d="M138.666 37.6172H139.088C140.233 37.6172 141.077 38.7211 141.077 39.9757C141.077 40.1664 141.067 40.2668 141.057 40.3671H137.38C137.44 41.441 138.013 42.1235 138.686 42.1235H139.078C139.711 42.1235 140.143 41.6617 140.243 41.13H141.017C140.917 42.0531 140.133 42.836 139.088 42.836H138.676C137.491 42.836 136.547 41.7221 136.547 40.1969C136.547 38.6716 137.632 37.6177 138.666 37.6177L138.666 37.6172ZM140.253 39.6746C140.233 38.9622 139.731 38.3301 139.088 38.3301H138.696C138.123 38.3301 137.591 38.8319 137.43 39.6746H140.253H140.253Z" fill="#F5F5F0"/>
</g>
<g id="Group_3">
<path id="Vector_20" d="M64.3594 35.7188H67.1872C68.4956 35.7188 69.3103 36.573 69.3103 37.7997C69.3103 39.0263 68.4951 39.8806 67.1872 39.8806H65.225V42.7558H64.3594V35.7192V35.7188ZM67.1167 39.1267C68.0728 39.1267 68.4351 38.4832 68.4351 37.7997C68.4351 37.1162 68.0628 36.4726 67.1167 36.4726H65.225V39.1262H67.1167V39.1267Z" fill="#F5F5F0"/>
<path id="Vector_21" d="M69.4073 41.4297C69.4073 40.4347 70.1719 39.9923 71.2385 39.8111L72.6873 39.57V39.5096C72.6873 38.8061 72.295 38.3233 71.7617 38.3233H71.3389C70.7752 38.3233 70.3428 38.6753 70.2824 39.3183H69.4672C69.5477 38.2629 70.3828 37.6094 71.3389 37.6094H71.7617C72.8183 37.6094 73.4925 38.3937 73.4925 39.5295V41.6404C73.4925 42.0323 73.6334 42.0628 74.0863 42.0628V42.7562H73.5225C73.0597 42.7562 72.7073 42.555 72.7273 41.912C72.4554 42.4647 71.7917 42.8366 71.0366 42.8366C70.0405 42.8366 69.4062 42.2939 69.4062 41.4292L69.4073 41.4297ZM71.108 42.1232C72.0036 42.1232 72.6878 41.5301 72.6878 40.555V40.2335L71.4099 40.4646C70.6957 40.5954 70.2424 40.7662 70.2424 41.3893C70.2424 41.8416 70.6047 42.1232 71.108 42.1232Z" fill="#F5F5F0"/>
<path id="Vector_22" d="M75.4484 42.8374L75.175 42.0905L73.5547 37.6875H74.3998L75.5973 41.0251C75.6978 41.2967 75.8387 41.7889 75.8387 41.7889H75.8687C75.8687 41.7889 76.0196 41.2962 76.1101 41.0251L77.2876 37.6875H78.1127L75.9692 43.6387C75.6873 44.4025 75.2545 44.805 74.5802 44.805H74.027V44.1414H74.4998C75.154 44.1414 75.3014 43.2607 75.4474 42.8374H75.4484Z" fill="#F5F5F0"/>
<path id="Vector_23" d="M78.0781 41.3035H78.8833C78.9438 41.8163 79.3766 42.1278 79.8494 42.1278H80.2517C80.7045 42.1278 81.1473 41.9166 81.1473 41.354C81.1473 40.9216 80.9059 40.6905 80.3926 40.6001L79.467 40.4293C78.6219 40.2686 78.1991 39.7958 78.1991 39.0724C78.1991 38.1977 78.9737 37.625 79.7889 37.625H80.2217C81.0369 37.625 81.8215 38.2081 81.842 39.0724H81.0469C81.0169 38.6605 80.6445 38.3384 80.2117 38.3384H79.7989C79.3761 38.3384 79.0242 38.5696 79.0242 39.0219C79.0242 39.3639 79.2256 39.625 79.6884 39.7154L80.6545 39.9066C81.4292 40.0574 81.973 40.349 81.973 41.304C81.973 42.2591 81.1478 42.8423 80.2822 42.8423H79.8494C78.9338 42.8423 78.1186 42.2392 78.0781 41.304V41.3035Z" fill="#F5F5F0"/>
<path id="Vector_24" d="M87.6852 38.4931H86.5781V37.7997H87.6852V37.0258C87.6852 36.1915 88.0575 35.7188 88.9026 35.7188H90.0197V36.4122H89.104C88.6912 36.4122 88.4903 36.583 88.4903 37.0957V37.7997H90.1206V38.4931H88.4903V42.7553H87.6852V38.4931Z" fill="#F5F5F0"/>
<path id="Vector_25" d="M92.1153 37.6094H92.5381C93.6851 37.6094 94.5307 38.7152 94.5307 39.9719C94.5307 40.1631 94.5208 40.2634 94.5108 40.3638H90.8278C90.8883 41.4392 91.4616 42.1232 92.1358 42.1232H92.5281C93.1618 42.1232 93.5946 41.6609 93.6956 41.1282H94.4703C94.3698 42.0528 93.5847 42.8371 92.5381 42.8371H92.1258C90.9383 42.8371 89.9922 41.7213 89.9922 40.1935C89.9922 38.6658 91.0792 37.6099 92.1153 37.6099V37.6094ZM93.7051 39.6703C93.6851 38.9569 93.1818 38.3233 92.5376 38.3233H92.1453C91.5715 38.3233 91.0382 38.8261 90.8773 39.6703H93.7051Z" fill="#F5F5F0"/>
<path id="Vector_26" d="M86.3821 41.6404V39.5295C86.3821 38.3937 85.7079 37.6094 84.6514 37.6094H84.2286C83.3514 37.6094 82.5773 38.1606 82.3933 39.0667H83.219C83.3564 38.5839 83.7438 38.3228 84.2286 38.3228H84.6514C85.1846 38.3228 85.577 38.8051 85.577 39.5091V39.5695L84.1281 39.8106C83.0615 39.9913 82.2969 40.4337 82.2969 41.4292C82.2969 42.2934 82.9311 42.8366 83.9272 42.8366C84.6819 42.8366 85.3461 42.4647 85.618 41.912C85.598 42.5555 85.9498 42.7562 86.4131 42.7562H86.9769V42.0628C86.5241 42.0628 86.3831 42.0328 86.3831 41.6404H86.3821ZM85.577 40.5545C85.577 41.5296 84.8928 42.1227 83.9971 42.1227C83.4939 42.1227 83.132 41.8411 83.132 41.3888C83.132 40.7657 83.5848 40.5945 84.2995 40.4641L85.5775 40.233V40.5545H85.577Z" fill="#F5F5F0"/>
</g>
</g>
</g>
</g>
<defs>
<clipPath id="clip0_6696_120766">
<rect width="140.08" height="45" fill="white" transform="translate(0.921875 0.273438)"/>
</clipPath>
</defs>
</svg>
