<svg version="1.2" xmlns="http://www.w3.org/2000/svg" viewBox="0 0 1680 750" width="1680" height="750"><style>.a{fill:#fff}.b{fill:#00a3ff}</style><path class="a" d="m1404 593.8l27-161.9c3.7-29.7-1.8-50.8-17.6-64.1-25.1-20.4-60.6-11.5-78.6 9.1-11.7 12.4-16.9 29.3-23.1 63.5l-27.1 149.9c-5.2 29.6-13.4 61-52.6 61h-66.8c-41.7 0-44.5-36.3-39.8-57.5l56.4-312.6c5.5-28.7 15.5-53.8 61.7-53.8h47.9c37 0 59.2 13.6 47.6 66l-5.1 26c25.5-52.3 88.4-92.1 143.6-92.1 41.8 0 61 7.3 84.2 28.2 38.7 34.6 45.9 86.5 37.2 127.6l-38.5 207.1c-5.3 31.3-13.5 61.1-51.3 61.1h-66.5c-28.9 0-44.4-21.2-38.6-57.5z"/><path fill-rule="evenodd" class="a" d="m1071 181c-41.5 0-75-33.5-75-75 0-41.5 33.5-75 75-75 41.5 0 75 33.5 75 75 0 41.5-33.5 75-75 75z"/><path class="a" d="m1022.4 651.3c38.3 0 47.6-28.7 53.1-61.1l54.1-296.8c9.8-45.4-1.3-66.1-44.7-66.1h-51.2c-41.8 0-56.1 20.4-61.7 53.9l-55.8 313.9c-5.5 31.6 5.9 56.2 38.3 56.2z"/><path class="a" d="m333 227.5c17 20.4 37 45.9 27.2 106.5l-26.7 142.9 4.9 115c1 41 20.6 59.4 55.2 59.4h86.8c27.6 0 38.7-21 49.8-47.6l66.2-163.3 6.7 156c0.6 34.6 18.2 55.1 49.9 55.1h98.9c28.2 0 39.8-17 52.2-47.5l126.4-312.9c13.7-32.4 5.7-63.7-28.5-63.7h-63.5c-23.7 0-39.4 8.1-48.8 30.6l-85.2 209.6-7.8-187c-1.3-39.8-20.3-53.1-42.4-53.1h-64.4c-25.6 0-40.4 10-48.3 29.5l-85.7 210.8-7.6-191.7c-1.2-35.9-13-48.6-41.8-48.6h-55.7c-1.1 0-17.8 0-17.8 0z"/><path class="b" d="m283.2 240.2c24.9 18.2 38.9 44.9 31.3 83l-49.4 263.7c-7.2 43-48.5 71.2-91.5 63.1-40.5-7.7-70.4-45.8-62.3-91.5l28-152.7-17.5 7.9c-32.3 14.6-70.3 0-84.8-32.6-14.4-32.6 0-70.8 32.3-85.5l130.2-57.8c30.8-15.4 60-13.4 83.7 2.4z"/></svg>