<?xml version="1.0" encoding="UTF-8"?>
<svg id="_20bet" data-name="20bet" xmlns="http://www.w3.org/2000/svg" width="560" height="160" xmlns:xlink="http://www.w3.org/1999/xlink" viewBox="0 0 560 160">
  <defs>
    <style>
      .cls-1 {
        fill: url(#linear-gradient);
      }

      .cls-1, .cls-2, .cls-3, .cls-4, .cls-5, .cls-6, .cls-7, .cls-8, .cls-9 {
        stroke-width: 0px;
      }

      .cls-2 {
        fill: rgba(35, 118, 56, .39);
      }

      .cls-3 {
        fill: rgba(48, 171, 67, .6);
      }

      .cls-10 {
        opacity: .5;
      }

      .cls-4 {
        fill: url(#linear-gradient-2);
      }

      .cls-11 {
        fill: #f3f3f3;
        isolation: isolate;
      }

      .cls-5 {
        fill: rgba(45, 171, 63, .5);
      }

      .cls-6 {
        fill: rgba(25, 86, 51, .44);
        fill-rule: evenodd;
      }

      .cls-7 {
        fill: #27863a;
      }

      .cls-8 {
        fill: #fff;
      }

      .cls-9 {
        fill: #004b68;
      }
    </style>
    <linearGradient id="linear-gradient" x1="1.75" y1="161.19" x2="2.21" y2="161.19" gradientTransform="translate(30727.68 11545.09) rotate(-70.15) scale(202.44 -202.44)" gradientUnits="userSpaceOnUse">
      <stop offset="0" stop-color="#dbdbdb"/>
      <stop offset="1" stop-color="#fff"/>
    </linearGradient>
    <linearGradient id="linear-gradient-2" x1="1.51" y1="161.45" x2="1.98" y2="161.45" gradientTransform="translate(37728.25 12380.29) rotate(-72.45) scale(244.33 -244.33)" xlink:href="#linear-gradient"/>
  </defs>
  <g id="black">
    <path class="cls-6" d="M202.2,157c-35.29,0-63.89-28.6-63.89-63.89s28.6-63.89,63.89-63.89,63.89,28.6,63.89,63.89-28.6,63.89-63.89,63.89"/>
    <ellipse class="cls-2" cx="197.74" cy="91.69" rx="59.62" ry="60.28"/>
    <circle class="cls-7" cx="195.13" cy="88.76" r="56.8"/>
    <path class="cls-5" d="M176.92,153.09c26.97-.33,51.69-15.14,64.74-38.75l-.7-.14c-2.57-.37-5.14-.75-7.62-1.36-12.01,19.82-33.37,32.02-56.51,32.3-37.02.47-67.49-29.26-67.91-66.28-.42-37.02,29.26-67.49,66.28-67.91,20.43-.23,39.82,8.83,52.72,24.68,2.94-.47,5.94-.93,8.88-1.45-14.26-19.82-37.3-31.46-61.7-31.18-41.41.51-74.64,34.59-74.13,75.95.51,41.37,34.59,74.6,75.95,74.13"/>
    <path class="cls-3" d="M165.65,152.76c24.3,2.29,48.19-7.43,64.03-26.03,26.88-31.5,23.09-78.94-8.46-105.77-31.55-26.83-78.94-23.04-105.77,8.46-17.48,20.57-22.58,48.89-13.37,74.27.19-.14.37-.33.56-.47h0c1.96-1.68,3.93-3.37,6.03-4.86-7.01-22.06-2.2-46.18,12.81-63.85,24.02-28.14,66.46-31.55,94.65-7.53,28.18,24.02,31.6,66.42,7.57,94.6-13.23,15.56-32.86,24.21-53.28,23.51-1.59,2.57-3.18,5.09-4.77,7.67"/>
    <g class="cls-10">
      <path class="cls-9" d="M161.82,87.98c6.68-5.66,10.38-11.03,11.12-16.08.61-4.16-.42-6.4-3.08-6.73-1.45-.23-2.85.47-3.55,1.78-.84,1.36-1.54,4.07-2.15,8.04l-24.35-3.08c1.36-7.67,3.79-13.84,7.29-18.46s7.76-7.81,12.62-9.58c4.95-1.78,10.24-2.29,15.42-1.59,9.49,1.22,16.08,4.63,19.77,10.38,3.69,5.75,5,12.29,3.93,19.77-1.12,7.9-4.58,15-10.33,21.41-5.84,6.45-12.81,11.78-20.57,15.8l25.89,3.27-3.18,22.3-58.43-7.48,2.94-20.8c11.12-6.96,19.96-13.27,26.64-18.93h0ZM203.04,91.9c1.96-13.6,6.26-24.07,13.04-31.46,6.73-7.34,15.84-10.28,27.3-8.83,11.45,1.45,19.4,6.59,23.84,15.38s5.66,19.96,3.74,33.47c-1.96,13.6-6.26,24.12-13.04,31.5-6.78,7.38-15.84,10.38-27.3,8.93-11.45-1.45-19.4-6.54-23.84-15.38-4.44-8.79-5.66-20-3.74-33.61ZM246.19,97.33c.84-5.89.89-10.52.14-13.88s-2.99-5.23-6.68-5.7c-3.79-.47-6.5.79-8.13,3.83s-2.9,7.53-3.74,13.41c-.84,5.89-.89,10.52-.14,13.93s2.99,5.33,6.78,5.8c3.69.47,6.4-.84,8.04-3.93,1.64-3.08,2.85-7.57,3.74-13.46h0Z"/>
    </g>
    <g>
      <path class="cls-8" d="M163.55,83.44c6.96-6.12,10.75-11.64,11.4-16.55.56-3.97-.56-5.98-3.37-5.98-1.54-.05-2.94.75-3.69,2.1-.89,1.4-1.59,4.02-2.1,7.85h-25.71c1.26-7.43,3.69-13.51,7.38-18.32,3.41-4.58,7.9-8.23,13.13-10.56,5.14-2.24,10.66-3.37,16.27-3.37,10.05,0,17.11,2.48,21.08,7.43s5.52,11.03,4.53,18.23c-1.03,7.57-4.53,14.72-10.47,21.45-6.18,6.88-13.4,12.75-21.41,17.39h27.44l-2.94,21.45h-62.02l2.76-20c11.54-7.95,20.8-14.96,27.72-21.13h0Z"/>
      <path class="cls-1" d="M163.55,84.94c6.96-6.12,10.75-11.64,11.4-16.55.56-4.02-.56-5.98-3.37-5.98-1.54-.05-2.94.75-3.69,2.1-.89,1.4-1.59,4.02-2.1,7.85h-25.75c1.26-7.43,3.69-13.55,7.38-18.32,3.41-4.58,7.9-8.23,13.13-10.56,5.14-2.24,10.66-3.37,16.27-3.37,10.05,0,17.11,2.48,21.08,7.43s5.52,11.03,4.49,18.18c-1.03,7.57-4.53,14.72-10.47,21.45-6.18,6.88-13.4,12.75-21.41,17.39h27.44l-2.94,21.45h-61.93l2.76-20c11.54-7.9,20.75-14.96,27.72-21.08h0Z"/>
    </g>
    <g>
      <path class="cls-8" d="M207.16,82.23c1.78-13.09,6.17-23.51,13.13-31.27s16.5-11.64,28.65-11.64,20.66,3.88,25.47,11.69,6.36,18.18,4.58,31.22c-1.78,13.09-6.17,23.51-13.13,31.32-6.96,7.81-16.55,11.69-28.65,11.69s-20.66-3.88-25.47-11.69c-4.81-7.81-6.36-18.18-4.58-31.32h0ZM252.78,82.23c.79-5.66.75-10.05-.14-13.13-.84-3.08-3.23-4.63-7.15-4.63s-6.82,1.54-8.55,4.63c-1.68,3.08-2.94,7.43-3.69,13.13-.79,5.66-.75,10.05.09,13.18.84,3.13,3.27,4.67,7.24,4.67s6.73-1.54,8.41-4.67c1.73-3.08,2.99-7.48,3.79-13.18h0Z"/>
      <path class="cls-4" d="M207.16,83.73c1.78-13.09,6.17-23.51,13.13-31.27,6.96-7.76,16.5-11.59,28.65-11.59s20.66,3.88,25.47,11.69c4.81,7.81,6.36,18.18,4.58,31.22-1.78,13.09-6.17,23.51-13.13,31.32s-16.55,11.69-28.65,11.69-20.66-3.88-25.47-11.69c-4.86-7.81-6.4-18.23-4.58-31.36h0ZM252.78,83.73c.79-5.66.75-10.05-.14-13.13-.84-3.08-3.23-4.63-7.15-4.63s-6.82,1.54-8.55,4.63c-1.68,3.08-2.94,7.43-3.74,13.13-.79,5.66-.75,10.05.09,13.18.84,3.13,3.27,4.67,7.24,4.67s6.73-1.54,8.41-4.67c1.78-3.13,3.04-7.53,3.83-13.18h0Z"/>
    </g>
    <polygon class="cls-11" points="462.43 51.05 460.2 67.31 442.82 67.31 436.08 116.48 415.58 116.48 422.33 67.31 405.12 67.31 407.33 51.05 462.43 51.05"/>
    <polygon class="cls-11" points="377.06 67.31 375.95 75.42 396.28 75.42 394.16 90.86 373.83 90.86 372.56 100.12 395.67 100.12 393.42 116.48 349.81 116.48 358.78 51.05 402.4 51.05 400.17 67.31 377.06 67.31 377.06 67.31"/>
    <path class="cls-11" d="M346.07,88.62c1.81,2.97,2.5,6.5,1.92,9.94-.79,5.73-3.29,10.15-7.5,13.26s-9.87,4.67-16.95,4.67h-34.32l8.98-65.44h33.36c6.67,0,11.71,1.45,15.12,4.35,3.4,2.9,4.74,7.12,3.99,12.66-.42,3.59-1.93,6.96-4.32,9.66-2.31,2.58-5.35,4.4-8.71,5.22,3.82.93,6.63,2.82,8.43,5.68h0ZM315.24,76.56h7.94c1.85,0,3.27-.37,4.26-1.11,1.05-.84,1.71-2.08,1.81-3.42.22-1.6-.06-2.79-.85-3.56s-2.11-1.18-3.96-1.18h-7.96l-1.25,9.27ZM325.61,98.94c.99-.71,1.6-1.86,1.82-3.47.43-3.14-1.17-4.71-4.81-4.71h-9.35l-1.27,9.24h9.33c1.85,0,3.27-.34,4.26-1.03,0,0,.02-.03.02-.03Z"/>
  </g>
</svg>