<?xml version="1.0" encoding="utf-8"?>
<!-- Generator: Adobe Illustrator 16.0.0, SVG Export Plug-In . SVG Version: 6.00 Build 0)  -->
<!DOCTYPE svg PUBLIC "-//W3C//DTD SVG 1.1//EN" "http://www.w3.org/Graphics/SVG/1.1/DTD/svg11.dtd">
<svg version="1.1" id="Layer_1" xmlns="http://www.w3.org/2000/svg" xmlns:xlink="http://www.w3.org/1999/xlink" x="0px" y="0px"
	 width="200px" height="77px" viewBox="0 63.5 200 77" enable-background="new 0 63.5 200 77" xml:space="preserve">
<g>
	<path fill="#088E9A" d="M72.183,83.995c-0.078,3.125-1.276,5.918-2.589,8.673c-1.936,4.063-4.621,7.635-7.332,11.191
		c-0.278,0.365-0.805,0.619-0.696,1.218c-1.792,2.471-3.497,5.014-5.869,6.998c-0.578-0.228-0.936-0.281-1.178,0.541
		c-0.319,1.087-1.707,1.497-1.985,2.696c-0.041,0.177-0.229,0.313-0.236,0.523c0.174,0.215,0.41,0.241,0.659,0.2
		c0.27-0.044,0.715-0.015,0.222-0.446c0.774-0.809,1.835-1.088,2.824-1.456c2.051-0.765,3.932-1.961,6.111-2.395
		c0.489,0.028,0.859,0.333,1.235,0.593c-0.283-0.564,0.112-0.877,0.383-1.227c0.236-0.188,0.484-0.256,0.758-0.078
		c0.366,0.707-0.886,1.262-0.177,1.98c-0.366-0.658-0.077-1.037,0.542-1.371c0.898-0.488,1.746-1.064,2.313-1.96
		c1.198-0.954,2.581-1.481,4.071-1.76c0.608-0.104,0.601,0.295,0.601,0.713c-0.003,2.896-0.039,5.791,0.022,8.685
		c0.019,0.892-0.583,1.028-1.133,1.297c-8.637,4.199-17.274,8.397-25.916,12.588c-1.275,0.619-2.573,1.188-3.861,1.781
		c-1.882-0.332-1.998-0.273-2.191,1.09c-0.68,0.328-1.36,0.654-2.04,0.981c-0.331-2.634-0.067-5.27-0.163-7.383
		c-0.172,2.164,0.232,4.876-0.153,7.56c-0.07,0.076-0.157,0.107-0.261,0.094c-0.555-0.494-0.439-1.166-0.446-1.787
		c-0.021-2.109,0.032-4.219-0.022-6.326c-0.036-1.398,0.33-2.589,1.277-3.636c0.885-0.979,1.507-2.181,2.552-3.024
		c0.565-0.497,0.954,0.73,1.495,0.174c0.414-0.426,0.461-1.052,0.707-1.572c0.23-0.487,0.465-0.932,1.092-0.545
		c-0.226-0.47-0.813-0.054-1.11-0.407c0.36-1.525,1.36-2.562,2.608-3.404c0.144,0.009,0.362,0.104,0.419,0.043
		c1.746-1.944,3.399-3.955,4.258-6.483c0.816-1.67,1.876-3.166,3.206-4.472c0.188-0.043,0.502,0.039,0.553-0.049
		c0.658-1.164,1.796-2.08,1.865-3.553c0.801-1.77,1.563-3.564,3.025-4.927c0.56,1.259,1.513,0.651,2.371,0.497
		c-0.381-0.277-0.615,0.171-0.932,0.189c-0.398,0.023-0.824-0.035-1.054-0.367c-0.224-0.322,0.021-0.633,0.24-0.912
		c0.646-0.821,0.697-1.92,1.27-2.772c0.414-0.617,0.836-1.349,1.671-0.445c0.564,0.532,1.502,0.449,1.916,1.229
		c-0.338-0.875-1.287-0.727-1.875-1.184c-0.385-0.568-1.213-0.754-1.338-1.548c-0.018-0.87,0.262-1.677,0.526-2.487
		c0.054-0.126,0.122-0.247,0.192-0.363c0.518-1.003,0.076-2.058,0.135-3.086c0.008-0.138-0.056,0.25-0.232,0.167
		c-0.1-0.019-0.201-0.048-0.259-0.123c-1.748-2.268-2.646-2.481-5.26-1.24c-0.596,0.333-0.941,1.056-1.714,1.115
		c-0.231,0.143-0.768-0.828-0.772,0.233c-0.001,0.367-0.3,0.698-0.511,1.02c-0.356,0.597-0.922,1.117-0.708,1.926
		c0.01,0.136-0.018,0.264-0.078,0.385c-1.468,0.551-2.104,1.633-2.063,3.175c0.011,0.391-0.317,0.561-0.642,0.689
		c-0.208,0.045-0.406,0.023-0.587-0.095c-0.223-0.194,0.156-0.607-0.368-0.763c-0.53-0.158-0.548,0.2-0.712,0.446
		c-0.195,0.291-0.453,0.48-0.793,0.566c-1.752,0.053-3.479,0.417-5.236,0.395c-1.119-0.029-2.253,0.182-3.349-0.207
		c-0.34-0.206-0.37-0.485-0.19-0.812c0.454-0.492,1.688-0.502,1.043-1.69c-0.055-0.1,0.049-0.298,0.178-0.368
		c1.028-0.555,0.782-1.478,0.692-2.358c0.261-0.584,0.731-1.044,0.984-1.628c0.224-0.518,0.458-0.817,1.125-0.922
		c0.915-0.144,1.294-1.101,0.947-1.883c0.299-1.488,1.814-1.91,2.658-2.936c0.562-0.685,0.966,0.419,1.407,0.782
		c0.133,0.145,0.22-0.234,0.115-0.067c-0.032,0.051-0.079,0.042-0.142-0.027c-1.158-1.259-1.172-1.273,0.086-2.516
		c0.487-0.48,1.071-0.867,1.142-1.629c0.842-1.083,1.878-1.843,3.289-1.979c0.079,0.104,0.204,0.174,0.229,0.317
		c0.043-0.156-0.142-0.167-0.178-0.283c0.045-0.536,0.45-0.604,0.854-0.676c0.342,0.015,0.697,0.054,0.978,0.237
		c0.761,0.496,1.266,0.743,1.885-0.361c0.26-0.465,0.862-1.016,1.347-1.493c1.356-0.923,2.966-0.464,4.427-0.818
		c1.835,0.211,3.697,0.271,5.469,0.862c3.848,1.282,6.26,4.606,6.361,8.729c0.079,0.182,0.191,0.466,0.059,0.55
		c-1.044,0.661-1.471,2.345-3.175,1.876c0.247,1.237,0.541,1.38,1.421,0.742c0.079-0.057,0.152-0.123,0.216-0.196
		c0.326-0.374,0.697-0.823,1.218-0.633C72.621,82.875,72.002,83.544,72.183,83.995z"/>
	<path fill="#FE4949" d="M37.31,91.526c1.186,0.013,2.372,0.026,3.557,0.039c0.394,0.728-0.034,1.345-0.316,1.944
		c-1.327,2.815-3.365,5.076-5.78,6.973c-4.408,3.465-9.505,5.702-14.582,7.958c-1.029,0.455-2.024,0.965-3.318,1.549
		c3.396,1.055,6.562,1.867,9.685,2.822c1.444,0.44,2.995,0.596,4.291,1.477c0.127,0.607-0.269,1.016-0.572,1.447
		c-0.591,0.841-1.238,1.64-1.891,2.432c-1.315,1.598-2.66,3.166-2.279,5.475c0.046,0.277-0.089,0.578-0.354,0.767
		c-7.993-2.569-15.983-5.148-23.983-7.694c-0.663-0.211-0.814-0.541-0.756-1.175c0.204-2.252,0.41-4.504,0.524-6.761
		c0.042-0.817,0.566-1.065,1.113-1.389c5.467-3.209,10.966-6.371,15.91-10.381c2.375-1.926,4.598-4.011,6.348-6.541
		c1.553-2.245,2.258-4.686,1.414-7.388c-0.12-0.384-0.051-1.079-0.82-0.985c-1.87-2.931-5.977-3.315-8.374,0.355
		c-0.586,0.898-0.873,1.972-1.662,2.742c-0.391,0.443-0.728,0.042-1.042-0.101c-2.948-1.339-5.869-2.739-8.838-4.03
		c-0.947-0.412-0.92-0.849-0.563-1.664c2.662-6.058,7.368-9.234,13.856-9.929c1.216-0.13,2.44-0.193,3.661-0.287
		c2.968,0.16,5.82,0.805,8.544,2.01c1.354,0.599,2.643,1.315,3.872,2.134c0.478,0.318,1.058,0.594,1.025,1.323
		c-0.968,1.671-2.583,2.778-3.734,4.308c-1.906,2.533-3.389,5.251-4.398,8.258c-0.388,1.158-0.057,1.583,1.058,1.822
		c2.299,0.493,4.56,1.146,6.829,1.764C36.302,90.956,36.881,91.073,37.31,91.526z"/>
	<path fill="#FFFFFF" d="M144.189,83.829c3.983,0,7.971,0.05,11.953-0.03c1.237-0.024,1.434,0.35,1.043,1.399
		c-0.343,0.918-0.539,1.894-0.933,2.788c-1.508,3.438-4.137,5.301-7.926,5.335c-4.279,0.039-8.562,0.03-12.841-0.028
		c-1.021-0.014-1.344,0.263-1.334,1.31c0.029,2.956-0.018,2.957,2.929,2.957c3.838,0,7.676,0.032,11.515-0.022
		c1.038-0.015,1.178,0.241,0.961,1.237c-1.291,5.913-4.363,8.446-10.438,8.448c-1.277,0.002-2.558-0.074-3.832-0.162
		c-0.813-0.058-1.104,0.213-1.129,1.071c-0.093,3.271-0.123,3.271,3.202,3.271c6.3,0,12.597,0.016,18.894-0.017
		c0.937-0.004,1.394,0.123,0.981,1.185c-0.299,0.775-0.43,1.615-0.725,2.393c-1.516,4-4.248,5.93-8.541,5.939
		c-7.773,0.018-15.547-0.021-23.32-0.034c-0.098,0-0.198-0.013-0.295,0.001c-0.754,0.111-0.881-0.283-0.879-0.941
		c0.021-9.494-0.035-18.99,0.053-28.486c0.037-3.92,3.853-7.28,8.263-7.567c0.246-0.016,0.492-0.035,0.737-0.035
		c3.888-0.002,7.773-0.001,11.66-0.001C144.189,83.834,144.189,83.832,144.189,83.829z"/>
	<path fill="#FFFFFF" d="M183.436,83.829c5.408,0,10.816,0.018,16.226-0.017c0.959-0.006,1.377,0.155,0.967,1.201
		c-0.394,1.001-0.596,2.083-1.043,3.055c-1.537,3.348-4.17,5.124-7.873,5.217c-1.721,0.043-3.442,0.066-5.162-0.008
		c-1.024-0.044-1.336,0.272-1.325,1.315c0.049,5.752-0.117,11.51,0.065,17.256c0.158,5.039-2.951,7.299-6.231,8.334
		c-1.162,0.367-2.402,0.486-3.588,0.797c-0.912,0.239-1.103-0.115-1.072-0.944c0.051-1.375,0.014-2.753,0.014-4.13
		c0-7.08-0.023-14.16,0.025-21.24c0.008-1.117-0.318-1.407-1.412-1.392c-4.324,0.061-8.652-0.008-12.979,0.048
		c-1.058,0.014-1.317-0.314-0.991-1.258c0.352-1.018,0.629-2.069,1.057-3.054c1.432-3.278,3.912-5.115,7.543-5.143
		c5.262-0.04,10.521-0.01,15.783-0.01C183.436,83.848,183.436,83.838,183.436,83.829z"/>
	<path fill="#025B62" d="M25.751,124.406c-0.438-2.816,0.827-4.953,2.654-6.928c0.89-0.963,1.591-2.1,2.377-3.156
		c0.534-1.439,1.633-2.492,2.513-3.695c2.453-3.176,4.897-6.357,7.082-9.729c2.005-2.622,3.708-5.437,5.308-8.315
		c0.314-0.564,0.616-1.117,1.182-1.472c0.385-0.174,0.74-0.136,1.064,0.141c0.198-0.001,0.396-0.003,0.595-0.005
		c0.854-0.142,1.34-0.647,1.54-1.483c0.202-0.844,0.513-1.647,1.095-2.316c0.022-0.095,0.037-0.191,0.043-0.288
		c-0.143-0.665,0.302-1.118,0.585-1.63c0.406-0.332,0.528-0.911,1.017-1.173c0.883-0.256,1.417-0.922,1.913-1.632
		c2.558-1.709,4.533-1.213,5.895,1.482c0.157,0.149,0.198,0.349,0.238,0.548c0.005,0.134-0.008,0.267-0.035,0.397
		c-0.226,0.689-0.111,1.402-0.143,2.105c-0.006,0.064-0.014,0.128-0.021,0.192c-0.197,0.889-0.394,1.778-0.59,2.667
		c-0.359,1.968-1.112,3.758-2.396,5.308c-0.992,1.669-1.984,3.339-2.977,5.008c-0.406,1.431-1.245,2.577-2.338,3.556
		c-1.071,1.479-2.142,2.957-3.213,4.438c-0.38,1.699-1.842,2.691-2.694,4.086c-0.548,0.896-1.075,1.858-2.075,2.383
		c-0.874,1.088-1.747,2.176-2.62,3.266c-0.196,1.097-0.899,1.806-1.8,2.363c-1.071,1.324-2.133,2.654-3.217,3.968
		c-0.461,0.559-0.627,1.176-0.62,1.895c0.027,2.979,0.022,5.96,0.03,8.939c-0.389,0.467-0.722,0.036-1.024-0.106
		c-2.775-1.32-5.523-2.701-8.316-3.982c-0.812-0.373-1.039-0.871-1.023-1.695C25.811,127.828,25.765,126.117,25.751,124.406z"/>
	<path fill="#025B62" d="M37.31,91.526c-3.187-0.793-6.371-1.604-9.565-2.366c-0.697-0.167-0.789-0.385-0.586-1.087
		c1.549-5.348,4.495-9.771,8.681-13.4c1.552-1.787,3.415-3.062,5.777-3.516c4.858-2.04,9.862-1.936,14.927-1.039
		c1.258,0.223,2.527,0.378,3.792,0.565c-1.373,0.796-3.053,0.365-4.44,1.108c-1.232,0.893-2.604,1.402-4.125,1.501
		c-0.304,0.186-0.606,0.373-0.91,0.559l0.005-0.004c-1.182,0.537-2.336,1.118-3.251,2.073c-0.369,1.049-1.428,1.431-2.13,2.158
		c-1.529,1.585-3.073,3.142-4.134,5.1c-0.928,0.889-1.247,2.153-1.953,3.179c-0.613,1.541-0.986,3.176-1.825,4.627
		C37.485,91.165,37.397,91.346,37.31,91.526z"/>
	<path fill="#025B62" d="M55.604,111.963c1.65-1.766,3.113-3.688,4.61-5.582c0.385-0.486,0.898-0.872,1.352-1.305
		c3.223,0.947,6.447,1.895,9.67,2.842c-1.281,0.639-2.562,1.275-3.843,1.914c-0.88,0.645-1.8,1.191-2.938,1.217
		c-0.2,0.094-0.399,0.186-0.599,0.277c-0.447,0.32-0.888,0.656-1.49,0.584c-3.087,1.189-6.147,2.445-9.129,3.884
		c-0.841,0.292-0.759-0.188-0.471-0.64C53.544,113.947,54.491,112.879,55.604,111.963z"/>
	<path fill="#C62929" d="M41.617,71.157c-2.058,0.957-3.964,2.161-5.778,3.516c-2.068-2.156-4.802-3.066-7.496-4.097
		c-1.887-0.722-3.973-0.514-5.805-1.394c3.627-0.429,7.213-1.358,10.923-0.664C36.3,69.049,39.102,69.646,41.617,71.157z"/>
	<path fill="#C62929" d="M15.464,85.191c0.496-1.841,1.464-3.392,2.893-4.651c2.016-1.776,5.68-1.32,7.147,0.871
		c0.171,0.256,0.028,0.457-0.005,0.683c-0.246,1.47-0.962,2.161-2.603,2.229C20.411,84.426,17.94,84.884,15.464,85.191z"/>
	<path fill="#11909C" d="M72.183,83.995c-0.133-0.19-0.333-0.366-0.379-0.575c-0.038-0.172,0.438-0.385,0.064-0.57
		c-0.146-0.072-0.58,0.087-0.627,0.228c-0.155,0.462-0.502,0.72-0.873,0.907c-0.452,0.228-1.102,0.569-1.436,0.116
		c-0.321-0.436-0.343-1.13-0.375-1.717c-0.01-0.203,0.394-0.573,0.665-0.301c1.033,1.04,1.2,0.163,1.478-0.6
		c0.247-0.677,1.61-0.029,1.465-1.207C72.5,81.513,72.488,82.753,72.183,83.995z"/>
	<path fill="#0F94A1" d="M36.403,135.229c0.005-2.754,0.01-5.508,0.022-8.26c0-0.078,0.086-0.154,0.294-0.502
		c0,3.042,0,5.814,0,8.586C36.614,135.111,36.509,135.17,36.403,135.229z"/>
	<path fill="#0F8F9B" d="M38.759,134.07c-0.591-0.525-0.327-1.211,0.055-1.506c0.747-0.575,1.512-0.203,2.136,0.416
		C40.289,133.48,39.55,133.826,38.759,134.07z"/>
	<path fill="#FFFFFF" d="M118.502,102.693c-0.064-0.166-0.072-0.406,0-0.564c1.068-2.348,0.617-4.84,0.67-7.275
		c0.035-1.613,0.193-3.251-0.256-4.839c-1.047-3.69-4.584-6.147-9.063-6.171c-7.769-0.042-15.538,0.013-23.305-0.042
		c-1.15-0.008-1.374,0.354-1.365,1.42c0.051,5.703,0.024,11.406,0.024,17.109s0.028,11.407-0.024,17.108
		c-0.01,1.117,0.224,1.535,1.441,1.502c3.292-0.09,6.587-0.023,9.881-0.032c4.818-0.013,9.641,0.09,14.452-0.093
		c4.617-0.176,8.187-3.694,8.179-8.047C119.133,109.412,119.773,105.984,118.502,102.693z M99.272,93.36c0.98,0,1.96,0,2.942,0
		c1.667,0,3.335,0.021,5.001-0.01c0.68-0.013,0.918,0.212,0.967,0.919c0.236,3.441,0.26,3.439-3.178,3.439
		c-2.5,0-5.002-0.051-7.5,0.023c-1.058,0.031-1.309-0.335-1.303-1.337C96.219,93.36,96.178,93.36,99.272,93.36z M105.498,111.438
		c-1.08,0-2.162,0-3.242,0c-1.72-0.002-3.439-0.018-5.158,0.008c-0.601,0.01-0.837-0.15-0.892-0.813
		c-0.282-3.455-0.305-3.452,3.105-3.452c2.652,0,5.306,0.031,7.958-0.02c0.914-0.018,1.153,0.302,1.166,1.188
		C108.473,111.438,108.506,111.438,105.498,111.438z"/>
	<path fill="#C62929" d="M46.687,91.334c-1.76,3.43-3.61,6.803-6.151,9.74c-1.56,1.404-3.484,2.213-5.33,3.105
		c-2.7,1.305-5.417,2.581-8.184,3.745c-0.175,0.072-0.371,0.142-0.447,0.45c1.651,0.568,3.361,0.965,5.034,1.482
		c0.688,0.213,1.474,0.262,1.92,0.967c-0.921,1.16-1.643,2.478-2.746,3.496c-4.873-1.359-9.746-2.721-14.619-4.079
		c0.003-0.123,0.006-0.246,0.01-0.369c2.391-1.086,4.798-2.14,7.17-3.265c4.92-2.334,9.87-4.637,13.673-8.716
		c1.713-1.837,3.245-3.806,3.85-6.327c1.862-0.106,3.724-0.212,5.584-0.317C46.579,91.143,46.657,91.172,46.687,91.334z"/>
	<path fill="#0D8F9B" d="M41.121,83.003c1.601-2.877,3.858-5.153,6.493-7.083c0.321,0.785-0.282,1.028-0.737,1.469
		c-0.645,0.625-1.91,1.28-0.455,2.381c0.34,0.257,0.436,0.622-0.005,1.126c-0.148-0.562-0.377-0.993-0.704-1.364
		c-0.355-0.405-0.858-0.335-0.945,0.049c-0.313,1.384-1.958,1.402-2.458,2.547C41.934,83.323,41.738,83.467,41.121,83.003z"/>
	<path fill="#0D8E9A" d="M64.163,76.223c0.474,0.463,0.999,0.016,1.514,0.087c0.199,0.418-0.463,0.541-0.384,0.609
		c1.371,1.181,0.104,2.604,0.401,3.938c-1.607-0.844-1.689-2.539-2.285-3.902C63.211,76.503,63.866,76.434,64.163,76.223
		L64.163,76.223z"/>
	<path fill="#0D909D" d="M44.37,114.893c1.589-2.156,3.179-4.313,4.769-6.47c0.351,0.187,0.534,0.378,0.211,0.786
		c-0.481,0.607-1.228,1.232-1.289,1.902c-0.123,1.354-2.224,1.481-1.716,3.076c-0.713,0.104-1.021,0.484-1.132,1.227
		C45.184,115.609,44.56,115.264,44.37,114.893z"/>
	<path fill="#0E8F9B" d="M57.667,95.423c0.798-1.77,1.597-3.539,2.396-5.309c0.481,0.412,0.954,0.829,1.146,1.465l0,0
		c-0.587-0.396-1.092-0.192-1.317,0.373c-0.33,0.828-0.885,1.586-0.913,2.52c-0.005,0.169,0.183,0.43-0.105,0.44
		c-0.477,0.019-0.757,0.135-0.656,0.674c0.419-0.104,0.877,0.536,1.272-0.07c0.316-0.482,0.574,0.037,0.857,0.067
		c0.33,0.035,0.172,0.253,0.118,0.435c-0.175,0.588-0.619,0.021-0.738,0.136c-0.642,0.624-1.577-0.066-2.233,0.607
		C57.558,96.27,57.613,95.846,57.667,95.423z"/>
	<path fill="#0C8E9A" d="M51.161,87.448c-0.299,1.012-0.634,2.015-0.888,3.038c-0.264,1.061-1.069,0.732-1.748,0.762
		c0.645-0.253,0.317-0.997,0.311-1.246C48.792,88.309,49.812,87.769,51.161,87.448z"/>
	<path fill="#0E8F9C" d="M55.604,111.963c-0.834,1.072-1.666,2.145-2.503,3.215c-0.212,0.271-0.57,0.559,0.138,0.616
		c0.888,0.306-0.012,0.431-0.09,0.508c-0.446,0.445-0.906,0.099-1.325-0.083c-0.287-0.125-0.242-0.472-0.018-0.589
		c1.043-0.542,0.674-2.3,2.174-2.458c0.467-0.05,0.2-0.568,0.312-0.857C54.572,111.6,54.939,111.227,55.604,111.963z"/>
	<path fill="#0D8E9B" d="M41.121,83.003c0.791,0.246,0.731-0.668,1.19-0.874c0.514,0.232,1.719,0.225,0.377,1.098
		c-0.602,0.391-0.573,1.839-1.847,1.097c-0.154,0.344-0.246,0.74-0.478,1.021c-0.334,0.404-0.446,0.999-1.004,1.215
		c-0.08-0.071-0.11-0.145-0.089-0.221c0.021-0.078,0.044-0.117,0.07-0.117C39.7,85.02,40.317,83.959,41.121,83.003z"/>
	<path fill="#0D8F9B" d="M51.771,73.293c1.3-0.705,2.72-1.082,4.125-1.501c-0.271,0.56-0.216,1.427-1.219,1.301
		c0.43,1.607-0.986,1.103-1.477,1.03C52.785,74.061,52.239,73.604,51.771,73.293z"/>
	<path fill="#0D8E9B" d="M39.949,120.521c0.6-0.789,1.2-1.576,1.8-2.364c0.434,0.011,0.872-0.063,1.222,0.341
		c0.16,0.186,0.678,0.152,0.421,0.564c-0.237,0.381-0.506,0.098-0.681-0.137c-0.386-0.517-0.622-0.197-0.646,0.176
		c-0.035,0.531-0.6,0.981-0.501,1.319c0.269,0.916-0.885,0.53-0.86,1.114C40.451,121.197,40.2,120.859,39.949,120.521z"/>
	<path fill="#0D8F9B" d="M39.339,86.222c0.006,0.112,0.013,0.225,0.02,0.337c0.013,0.956,0.98,2.196-0.78,2.639
		c-0.033,0.008-0.057,0.285,0.001,0.386c0.412,0.719,0.087,1.178-1.007,1.4C37.889,89.295,38.479,87.708,39.339,86.222z"/>
	<path fill="#0E8E9B" d="M64.457,111.049c0.886-0.631,1.893-0.97,2.938-1.217c-0.238,1.184-1.502,1.908-2.151,2.018
		c-1.333,0.227-0.615,1.033-0.844,1.535C63.454,112.579,64.134,111.818,64.457,111.049z"/>
	<path fill="#0F8E9A" d="M47.501,86.423c-0.27,0.437-0.984,0.271-1.063,0.793c-1.213-1.101-0.954-2.404-0.721-3.705
		c0.089-0.011,0.195-0.054,0.266-0.022c0.51,0.23,0.479,0.663,0.213,1.125c-0.221,0.384-0.815,0.921,0.102,1.415
		C46.702,86.248,47.216,85.832,47.501,86.423z"/>
	<path fill="#108E9A" d="M61.788,82.279c1.092-0.517,2.227,0.794,3.292-0.285c-0.204,0.969-0.93,1.431-1.594,2.038
		C63.009,83.373,62.849,82.372,61.788,82.279z"/>
	<path fill="#0E919D" d="M52.353,103.986c0.78-1.187,1.559-2.371,2.339-3.556c0.763,0.101,0.353,0.528,0.188,0.808
		c-0.563,0.945-1.369,1.714-1.566,2.92C53.218,104.746,52.721,103.889,52.353,103.986z"/>
	<path fill="#0E8E9A" d="M57.812,105.869c0.115,0.307,0.272,0.605,0.338,0.924c0.118,0.576-0.468,0.671-0.746,0.967
		c-0.335,0.357-0.514,0.016-0.616-0.24c-0.205-0.516-1.266-0.453-0.954-1.199c0.257-0.612,0.79-0.081,1.052,0.111
		C57.754,107.068,57.661,106.484,57.812,105.869z"/>
	<path fill="#0D8E9A" d="M51.513,123.072c-1.403,0.654-1.505,1.146-0.309,2.334c-0.983-0.488-2.072-0.186-1.706-1.65
		C49.803,122.537,50.432,122.641,51.513,123.072z"/>
	<path fill="#0F8E9A" d="M66.161,91.268c0.231-0.429,0.446-0.737,0.567-1.078c0.122-0.342-0.46-1.061,0.241-1
		c0.476,0.042,1.166,0.627,1.079,1.356c-0.072,0.598-0.507,0.863-1.162,0.626C66.701,91.105,66.449,91.224,66.161,91.268z"/>
	<path fill="#0F8E9A" d="M48.42,112.157c0.5-1.085,2.094-0.96,1.616-2.411c0.498,0.594,1.322,0.92,0.872,1.854
		C50.042,111.137,49.419,112.049,48.42,112.157z"/>
	<path fill="#0F8E9A" d="M52.362,81.447c-0.066,0.4-0.033,0.746-0.446,0.764c-0.678,0.03-1.005-1.007-1.813-0.609
		c-0.007-0.139-0.074-0.347-0.009-0.404c0.285-0.25,0.607-0.456,0.916-0.678C51.207,81.182,52.01,81.073,52.362,81.447z"/>
	<path fill="#0F8E9A" d="M45.169,119.594c0.264,0.586-0.184,1.038-0.251,1.553c-0.029,0.228-0.287,0.574-0.062,0.652
		c0.459,0.158,0.93,0.188,0.302,0.727c-0.554,0.478-0.57-0.275-0.851-0.42c-0.502-0.256-0.598-0.944-0.211-1.082
		C44.853,120.755,44.684,119.967,45.169,119.594z"/>
	<path fill="#0F8E9A" d="M62.88,101.77c-0.735-0.119-1.373-0.43-2.078-0.33c-0.108,0.017-0.276-0.213-0.366-0.358
		c-0.022-0.037,0.173-0.292,0.23-0.279C61.435,100.971,62.618,100.008,62.88,101.77z"/>
	<path fill="#108E9A" d="M57.729,77.695c0.485-0.667,0.076-1.181-0.174-1.709c-0.22-0.467,0.058-0.576,0.434-0.687
		c0.532-0.156,0.563,0.145,0.563,0.529C58.553,76.553,58.39,77.201,57.729,77.695z"/>
	<path fill="#0F8E9A" d="M64.164,76.224c-0.126-0.286-0.283-0.481-0.658-0.437c-0.442,0.051-1.152,0.369-1.152-0.363
		c0-0.415,0.811-0.322,1.244-0.435c0.314-0.082,0.672,0.521,1.11-0.142C64.721,75.565,64.515,75.929,64.164,76.224L64.164,76.224z"
		/>
	<path fill="#0F8E9A" d="M46.322,124.707c0.17,0.939,0.896,0.986,1.397,1.266c-0.329,1.342-1.284-0.156-1.746,0.471
		C45.716,125.904,45.889,125.428,46.322,124.707z"/>
	<path fill="#0F8E9A" d="M61.21,91.58c1.169-0.056,2.047,0.379,2.637,1.672C62.731,92.848,61.887,92.355,61.21,91.58L61.21,91.58z"
		/>
	<path fill="#0E8F9B" d="M52.934,84.48c-0.3,0.395-0.6,0.789-0.899,1.184c-0.484-0.008-0.476-0.249-0.274-0.581
		c0.736-0.539,0.224-1.603,0.931-2.248c0.236,0.374,0.13,0.869,0.545,1.063C53.416,84.237,53.165,84.354,52.934,84.48z"/>
	<path fill="#0C8E9A" d="M46.687,91.334c-0.086-0.008-0.165-0.037-0.236-0.086c0.46-0.271-0.071-2.252,1.395-0.802
		c0.236,0.233,0.273,0.196,0.085,0.807C47.517,91.28,47.102,91.307,46.687,91.334z"/>
	<path fill="#108E9A" d="M43.832,86.605c0.214,0.422,0.252,1.016,0.701,1.364c-0.18,0.22-0.359,0.584-0.661,0.454
		c-0.591-0.255-0.491-0.874-0.568-1.389C43.253,86.699,43.432,86.61,43.832,86.605z"/>
	<path fill="#0F8E9A" d="M41.69,84.938c-0.334,1.045-0.609,1.706-1.606,2.09C40.177,86.03,40.723,85.557,41.69,84.938z"/>
	<path fill="#0C8E9A" d="M51.76,85.083c0.006,0.234,0.047,0.451,0.274,0.581c-0.277,0.499-0.554,0.997-0.831,1.496
		C50.39,86.2,51.487,85.751,51.76,85.083z"/>
	<path fill="#0D94A1" d="M60.634,84.78c-0.006-0.191-0.013-0.383-0.02-0.574c0.007-0.047,0-0.106,0.024-0.141
		c0.047-0.064,0.113-0.114,0.171-0.17c0.491,1.169,0.672,2.349,0.102,3.549C60.302,86.61,60.831,85.658,60.634,84.78z"/>
	<path fill="#118E9A" d="M46.823,122.76c0.72-0.283,1.231-0.537,1.611-1.129C48.443,122.999,48.443,122.999,46.823,122.76z"/>
	<path fill="#01555C" d="M52.934,84.48c0.101-0.194,0.201-0.388,0.302-0.583c0.495-0.391,0.989-0.782,1.484-1.173
		C54.298,83.765,53.931,84.125,52.934,84.48z"/>
	<path fill="#0E8E9B" d="M62.368,111.91c0.417-0.396,0.934-0.539,1.49-0.584C63.455,111.761,63.453,113.217,62.368,111.91z"/>
	<path fill="#0D8F9B" d="M50.86,73.852c0.363,0.05,0.851-0.081,0.849,0.527c-0.001,0.258-0.159,0.532-0.433,0.456
		c-0.496-0.137-0.368-0.615-0.411-0.987L50.86,73.852z"/>
	<path fill="#077983" d="M60.634,84.78c0.557,0.84,0.163,1.778,0.278,2.664c-0.086,0.002-0.172,0.003-0.258,0.003l-0.056-0.011
		c-0.194-0.78-0.202-1.561,0.004-2.34C60.613,84.992,60.624,84.886,60.634,84.78z"/>
	<path fill="#01535A" d="M60.603,85.097c-0.001,0.78-0.002,1.561-0.003,2.341C60.178,86.657,60.167,85.876,60.603,85.097z"/>
</g>
</svg>
