<?xml version="1.0"?>
<svg xmlns="http://www.w3.org/2000/svg" viewBox="0 0 1662.02 289.43" width="150" height="150"><defs><style>.cls-1{fill:#008be7;}.cls-2{fill:#40a8ed;}.cls-3{fill:#fff;}.cls-4{fill:#173550;}</style></defs><title>4rabet-logo_1</title><g id="&#x421;&#x43B;&#x43E;&#x439;_2" data-name="&#x421;&#x43B;&#x43E;&#x439; 2"><g id="&#x421;&#x43B;&#x43E;&#x439;_1-2" data-name="&#x421;&#x43B;&#x43E;&#x439; 1"><path class="cls-1" d="M1177,.43h212c1.72,2.4.57,4.83,0,7.2q-5.75,23.55-11.73,47c-1.9,7.51-2.83,8.27-10.63,8.28q-60,0-120,0-2.75,0-5.5.07a4.72,4.72,0,0,0-4.92,4.07c-3.08,13.48-6.67,26.84-9.66,40.34-.67,3,.37,4.42,3.45,4.42,1.67,0,3.33,0,5,0q50.23,0,100.46,0c10,0,11,1.18,8.5,10.72-3.65,14.2-6.73,28.54-10.4,42.73-2,7.9-2.81,8.58-10.9,8.59q-52,0-104,0c-8.53,0-8.6,0-10.63,8.4q-4.59,18.94-9.16,37.89c-1.44,6-.91,6.63,5.36,6.63q62.72,0,125.45,0c11,0,11.51.73,8.81,11.53-3.72,14.87-7.39,29.75-11.19,44.6-.61,2.38-.88,5-3.4,6.4H1107c-1.39-1.91-.44-3.87,0-5.75,5.87-25.62,12.23-51.13,18.48-76.66,16.23-66.25,32-132.62,48.4-198.83C1174.55,5.47,1174.81,2.55,1177,.43Z"/><path class="cls-1" d="M1422,289.43c.83-8.8,3.65-17.17,5.7-25.69q23.68-98.61,47.66-197.15c1.2-4.91-.4-5.08-4.32-5.06-24.47.13-48.94,0-73.41.15-4.21,0-5.37-.58-4.17-5.11,4.54-17.18,8.65-34.48,12.89-51.74.35-1.43.44-2.93.65-4.4q125.5,0,251,.1c1.25,0,4.31-2.07,4,1.9-2.66,18.15-8.2,35.64-12.4,53.44-1.49,6.29-2.45,7-8.94,7-27,.05-54,0-81,0-7.5,0-7.58,0-9.36,7.37-16.81,69.49-33.94,138.9-50.66,208.4-.88,3.68-1.1,7.64-3.65,10.78Z"/><path class="cls-2" d="M996,289.43a3.38,3.38,0,0,1,5,0Z"/><path class="cls-3" d="M864.48,287.56c-1.09-1.47-.69-3.06-.43-4.64a13.08,13.08,0,0,0-.3-3.45c-4.61-23.77-8.34-47.71-13.3-71.42a38.28,38.28,0,0,0-.63-5.45c-11.89-63.51-23-127.16-34.82-190.68-.72-3.87-.67-8-3-11.48H717c-2.38,1.12-3.69,3.26-5.08,5.34Q668.56,70.58,625,135.27,586.89,192.15,548.75,249a20.25,20.25,0,0,1-3,4.24c-6.77-13.42-12.33-27-18.89-40.11-1.68-3.35-1.84-5.85,1.76-8.49a155.11,155.11,0,0,0,40-43.47c16.91-27,25.32-56.07,20.39-88.07-3.44-22.32-13.91-40.84-31.83-54.82C543.92,8,528.91,1.74,512,.43H361a8.57,8.57,0,0,0-1.89,4c-2.42,9.52-4.85,19-7.14,28.61-10.82,45.19-21.89,90.33-32.85,135.49-1,4.21-3.1,5.64-7.31,5.59-14.16-.17-28.32-.05-42.48-.07-5.14,0-5.29-.15-4-5.06,3.48-13.55,6.45-27.23,9.88-40.8,1.73-6.85.76-8.09-6.21-8.11q-31.73-.08-63.47,0c-6.76,0-7.45.58-9.16,7.3-3.45,13.56-6.9,27.12-9.88,40.79-.95,4.35-3,6-7.54,6-15.49-.2-31-.05-46.48-.09-6.47,0-12.95.19-19.4-.13-.12-1.44.89-1.94,1.54-2.63q25.4-27.18,51.2-54c23.64-24.62,47-49.53,70.69-74.06,12-12.44,23.9-25,35.74-37.68,1.28-1.37,3.17-2.74,1.79-5.13H187a22.46,22.46,0,0,0-5.49,4.24c-5.12,5.23-10,10.65-15.09,15.93Q137.11,51.23,108,82.06c-13.25,14-26.5,28-39.92,41.88-17.59,18.15-34.54,36.92-52.53,54.69A22.3,22.3,0,0,0,9,190.15c-2.84,13.47-7,26.65-9,40.29v6C2.59,238.56,5.71,238,8.65,238q76.47.05,152.93,0c7.43,0,7.63.23,5.87,7.22-3.1,12.28-6.16,24.56-9,36.91-.54,2.4-1.6,4.79-.49,7.32h77c1.71-1.79,2-4.15,2.58-6.39,3.39-13,6.31-26.16,9.48-39.24,1-4.23,2.88-6.1,7.46-6,13.79.24,27.58.06,41.37.1,5.83,0,6,.27,4.85,6-2.8,13.34-6.77,26.39-9.51,39.74-.4,1.92-1.18,3.86-.22,5.84h77c1.59-1.66,1.92-3.84,2.43-5.93,3.24-13.25,6.42-26.52,9.63-39.78,1-4.29,2.93-6.16,7.48-6,7.14.3,14.31.18,21.46.06,10.8-.18,21.65.8,32.4-.6,4.16-.54,6.43.59,8.23,4.39,6.18,13.08,12.11,26.28,18.28,39.37,1.41,3,2.39,6.24,5.1,8.46H602a21.45,21.45,0,0,0,4.85-5.64c9.12-13.52,18-27.2,27.3-40.61,2.53-3.64,5.29-5.39,9.83-5.37,41.78.12,83.55.06,125.33.09,6.22,0,6.79.47,7.84,6.51,2.3,13.12,4.87,26.18,7.23,39.28.39,2.16.74,4.28,2.61,5.74h77A1.81,1.81,0,0,0,864.48,287.56Zm-366.72-139c-10.47,14-24.56,23.64-42.63,25.85-19.86,2.43-39.79.15-60.08,1.21,6.26-25.41,12.46-50.35,18.52-75.33,3-12.2,5.62-24.46,8.48-36.68.46-2,1.32-3.28,3.94-3.26,17.32.14,34.7-.77,52,.29,20,1.24,35.87,14,36.19,37.18A81.05,81.05,0,0,1,497.76,148.57Zm180.38,26.53L747,72.31,765.9,175.11Z"/><path class="cls-4" d="M862.91,284.37a3.8,3.8,0,0,1,.85,3.15C861.76,286.93,861.58,285.85,862.91,284.37Z"/><path class="cls-1" d="M1103.17,149.17c-3-3-6.56-5.49-10.23-8.58,8.78-5.57,16.85-11.07,23.64-18.31,17.47-18.64,24.12-41,21.24-65.83s-18.53-39.74-40.9-48.58c-11.54-4.56-23.6-6.62-35.92-7.44h-4a4.49,4.49,0,0,1-6,0H901a9,9,0,0,0-2.3,4.88c-2.76,12.69-6.07,25.26-9.13,37.88-13.43,55.32-27,110.59-40.19,166q2,11,3.93,22,4.79,26.6,9.59,53.2c-.51,1.26.34,2.16.85,3.15l.24,1.92H996a5.41,5.41,0,0,1,5,0h5c5.38-1,10.89-.53,16.28-1.32,18.29-2.67,35.76-8,52-16.91,20-11,34.81-26.57,41.94-48.73,3.36-10.44,4.34-21.11,4.17-32C1120.15,174.29,1114.67,160.56,1103.17,149.17Zm-64,65.92c-7.46,9.43-18.06,13.2-29.39,15.32-8.69,1.63-17.51,1.84-26.33,1.85-20,0-39.95-.11-59.92.11-4.08,0-4.52-1-3.59-4.65q6.55-26.1,12.56-52.33c.73-3.18,1.89-4.26,5.22-4.21,13,.21,26,.08,41.65.08,12.58.61,27.93-1.17,43.16,1.07C1045.74,175.75,1053.86,196.54,1039.18,215.09ZM1058.5,87.61c-3.92,15.68-15.83,22.14-30.09,25.68a57,57,0,0,1-10.84,1.61c-23.43,1.17-46.88.2-70.72.57,4.52-18.74,8.94-37,13.3-55.21.54-2.25,1.84-2.74,4-2.71,23,.42,45.94-.79,68.89.77a54.58,54.58,0,0,1,8.37,1.25Q1064.25,64.79,1058.5,87.61Z"/></g></g></svg>
