<?xml version="1.0" encoding="utf-8"?>
<svg xmlns="http://www.w3.org/2000/svg" fill="none" height="146" viewBox="0 0 199 146" width="199">
<path d="M76 22.5V2.30005C76 0.600049 76.2 0.300049 78 0.300049C79.2 0.300049 80.4 0.300049 81.6 0.500049C85.5 1.30005 87.7 4.10005 87.9 8.30005C87.9 9.70005 87.9 11.1 87.9 12.5C87.9 12.8 87.7 13.3 88.1 13.5C88.5 13.7 88.8 13.4 89 13.2C91 12.1 93 10.9 95 9.70005C97.5 8.20005 100 8.10005 102.6 9.70005C107.7 12.7 112.9 15.7001 118 18.6C120.5 20 121.7 22.1 121.6 25C121.6 31.2001 121.6 37.4 121.6 43.6C121.6 45.9 120.6 47.7001 118.6 48.8C113 52 107.4 55.3 101.9 58.5C99.8 59.7001 97.7 59.6 95.6 58.5C90.3 55.4001 85.1 52.3001 79.8 49.4001C77.2 48 76.1 45.9001 76.1 43C76.1 36.7001 76.1 30.5 76.1 24.2001V22.7001L76 22.5ZM99.4 19.1C99.1 19.1 98.9 19.1 98.6 19.1C90.1 20 84.3 27.3001 85.1 35.2001C85.7 41 88.7 45.2001 94 47.5C99.4 49.9001 104.5 49 109.1 45.5C110.3 44.6 110.3 44.3 109.1 43.2001C106.4 40.4001 103.6 37.7001 100.8 34.9001C99.8 33.9001 99.8 33.8 100.8 32.8C103.6 29.9 106.5 26.9 109.3 24C109.9 23.4 109.8 23 109.3 22.5C106.4 20.1 103 19.1 99.3 19.1H99.4Z" fill="#64D841"/>
<path d="M97.1 29.6C97.1 31.1 96.1 32.2 94.6 32.2C93.1 32.2 92.1 31.2 92 29.7C92 28.2 93 27.1 94.4 27C95.9 27 97 28.1 97 29.6H97.1Z" fill="white"/>
<path d="M163.2 89.3C162.8 89.9 162.4 90.5 162.1 91.1C160.7 93.5 159.4 95.9 158 98.3C157.1 99.9 156.2 101.5 155.2 103C155 103.3 154.7 103.6 154.3 103.8C153.9 104.1 153.7 103.8 153.5 103.5C152.4 101.5 151.3 99.6 150.2 97.6C149.5 96.4 148.7 95.1 148 93.9C147.3 92.7 146.7 91.4 146 90.2C146 90.1 145.7 89.9 145.6 89.9C145.5 89.9 145.3 90.1 145.2 90.2C145.2 90.5 145.2 90.9 145.2 91.2C145.2 96.9 145.2 102.5 145.2 108.2C145.2 109.2 144.7 109.7 143.7 109.7H139.5C137.2 109.7 137.2 109.7 137.2 107.4V77.2C137.2 75.8 137.4 75.6 138.8 75.6H144.6C145.9 75.6 146.4 76 146.9 77.2C147.7 78.8 148.5 80.3 149.4 81.8C150.2 83.3 150.9 84.7 151.6 86.2C152 87 152.5 87.8 153 88.6C153.1 88.8 153.2 89.1 153.4 89.3C153.6 89.6 153.8 90.1 154 90.1C154.4 90.1 154.8 89.8 155 89.5C155.7 88.3 156.3 87 157 85.7C158.1 83.6 159.3 81.5 160.4 79.3C160.9 78.5 161.3 77.6 161.7 76.7C162 76 162.5 75.6 163.2 75.6C165.5 75.6 167.8 75.6 170.1 75.6C170.4 75.6 170.7 76 170.9 76.3C171 76.5 170.9 76.8 170.9 77.1C171 83.5 171.2 89.8 171.3 96.2C171.3 100 171.5 103.9 171.6 107.7C171.6 109.3 171.4 109.6 169.8 109.6C168 109.6 166.3 109.6 164.5 109.6C163.6 109.6 163.4 109.3 163.4 108.5C163.4 102.5 163.4 96.6 163.4 90.6C163.4 90.1 163.4 89.6 163.2 89.2C163.1 89.2 163 89.2 162.9 89.2L163.2 89.3ZM22.4 91.4C24.5 89.1 25.2 86.4 24.7 83.5C24.5 82.4 24.3 81.1 23.4 80.2C22.7 79.4 22.2 78.5 21.4 77.9C19.2 76.2 16.4 75.6 13.8 75.5C9.6 75.2 5.4 75.5 1.2 75.5C0.6 75.5 0.2 75.8 0.1 76.4C0.1 76.8 0 77.2 0 77.7C0 88.1 0 98.5 0 108.8C0 110.1 -1.19209e-07 110.2 1.4 110.2C6.5 110.2 11.5 110.2 16.5 110.2C18.4 110.2 20 109.5 21.6 108.5C24.3 106.8 25.5 104.2 25.8 101.2C26 99.6 25.7 98.1 25.1 96.5C24.4 94.6 23 93.4 21.5 92.2C21.7 92 22 91.9 22.3 91.6L22.4 91.4ZM8 96.3C8 95.6 8.2 95.3 8.9 95.3C10.7 95.3 12.5 95.3 14.2 95.3C15.7 95.3 16.4 96.1 17 97.5C17.5 98.9 17.4 100.1 17 101.4C16.5 102.6 15.6 103.2 14.4 103.3C12.6 103.4 10.7 103.3 8.9 103.3C7.1 103.3 8 103 8 102.4C8 101.3 8 100.3 8 99.2C8 98.2 8 97.2 8 96.2V96.3ZM8 83.5C8 82.8 8.3 82.4 9 82.4C10.5 82.4 12.1 82.4 13.6 82.4C14.8 82.4 15.9 83.6 16 84.8C16 85.4 16 85.9 16 86.5C15.9 88.4 14.6 89.6 12.7 89.7C11.5 89.7 10.3 89.7 9.1 89.7C7.9 89.7 7.9 89.5 8 88.5C8 87.7 8 86.9 8 86.2V83.5ZM175.7 92.8V108.3C175.7 109.7 175.7 109.8 177.2 109.9C184 109.9 190.7 109.9 197.5 109.9C198.3 109.9 198.6 109.6 198.6 108.8C198.6 107.1 198.6 105.4 198.6 103.6C198.6 101.8 198.5 102.3 197.3 102.3H188.4C187.3 102.3 186.2 102.3 185.1 102.3C184.4 102.3 184 101.9 184 101.2C184 99.7 184 98.2 184 96.8C184 96.1 184.4 95.8 185.1 95.7C185.5 95.7 185.9 95.7 186.4 95.7C189.6 95.7 192.9 95.7 196.1 95.7C197.3 95.7 197.6 95.4 197.6 94.2V91C197.6 89.2 197.4 89 195.6 89H189.1C187.8 89 186.5 89 185.2 89C183.9 89 184 88.7 184 87.8C184 86.8 184 85.8 184 84.8C184 83.8 184 83.5 185.3 83.5C189 83.5 192.7 83.5 196.5 83.5C198 83.5 198.3 83.2 198.3 81.6C198.3 80 198.3 78.9 198.3 77.5C198.3 76.2 198 75.9 196.7 75.9C190.2 75.9 183.6 75.9 177.1 75.9C175.8 75.9 175.6 76.1 175.6 77.4V92.9L175.7 92.8ZM130.7 109.8C131.8 109.8 132.9 109.8 134.1 109.8C135.2 109.8 135.4 109.4 135 108.4C134.5 107.3 134.1 106.1 133.7 105C133.4 104.1 133.1 103.3 132.8 102.4C132.4 101.1 132 99.8 131.5 98.6C131.2 97.8 130.9 96.9 130.6 96.1C130.1 94.6 129.5 93.1 129 91.6C128.6 90.5 128.2 89.3 127.8 88.2C127.3 86.9 126.8 85.6 126.3 84.4C125.9 83.2 125.5 82 125.1 80.8C124.6 79.5 124 78.1 123.6 76.8C123.4 76.2 123.1 75.9 122.5 75.8C120.3 75.8 118.1 75.8 115.9 75.8C115 75.8 114.6 76.3 114.3 77.1C114 78.3 113.5 79.5 113 80.8C112.5 82.2 112 83.5 111.5 84.8C111.1 86 110.7 87.1 110.2 88.3C109.4 90.3 108.7 92.3 107.9 94.3C107.1 96.3 106.4 98.4 105.7 100.4C104.7 103.2 103.6 105.9 102.5 108.6C102.2 109.4 102.5 109.7 103.2 109.7C105.4 109.7 107.7 109.7 109.9 109.7C110.4 109.7 111.1 109.2 111.3 108.7C111.8 107.7 112 106.6 112.4 105.5C112.7 104.6 113.1 103.6 113.4 102.7C113.4 102.6 113.7 102.4 113.9 102.4C117 102.4 120 102.4 123.1 102.4C123.8 102.4 124.2 102.7 124.3 103.5C124.3 104.1 124.7 104.6 124.9 105.2C125.3 106.3 125.8 107.4 126.1 108.6C126.3 109.4 126.7 109.7 127.5 109.7H130.9L130.7 109.8ZM116.7 95.2C116.1 95.2 115.9 94.9 116 94.3C116 94.1 116 93.9 116.2 93.7C116.8 91.8 117.4 89.9 118 88C118 87.7 118.5 87.4 118.8 87.4C119.1 87.4 119.4 87.8 119.5 88.1C120.1 89.7 120.6 91.4 121.1 93C121.9 94.8 121.6 95.1 119.7 95.1H116.6L116.7 95.2ZM100.3 100.7V94.4C100.3 93.3 100.1 93.1 99 93C97.4 93 95.9 93 94.3 93C92.7 93 92.9 93.1 92.9 94.3C92.9 96.6 92.9 98.9 92.9 101.3C92.9 102.6 92.5 103.1 91.2 103.2C90.2 103.2 89.2 103.4 88.2 103.2C87.1 103 86 102.7 85.1 102C83 100.4 81.9 98.2 82 95.5C82 94.3 82 93.1 82 92C82 90 82 88.1 82.9 86.3C83.9 84.3 85.4 82.7 87.7 82.4C90 82.1 92.4 82.4 94.8 82.4C95 82.4 95.3 82.5 95.5 82.6C96.7 82.9 97.8 83.2 99 83.5C99.7 83.7 100.2 83.3 100.2 82.6C100.2 81.1 100.2 79.5 100.1 78C100.1 77.6 99.5 77.2 99.2 76.8C99 76.6 98.7 76.6 98.4 76.5C96.5 76 94.7 75.2 92.8 75.1C89.8 74.9 86.7 74.6 83.7 75.8C82 76.5 80.3 77.1 79 78.3C77.5 79.6 76.3 81.1 75.5 83C74.7 84.8 73.9 86.6 73.9 88.6C73.9 90.8 73.9 92.9 73.9 95.1C73.9 97.1 73.9 99.1 74.7 101.1C75.4 102.8 76.3 104.3 77.4 105.7C79.9 108.8 83.4 110 87.1 110.5C91.2 111.1 95.1 110 98.9 108.6C100.1 108.2 100.7 107.5 100.6 106C100.4 104.2 100.6 102.4 100.6 100.6L100.3 100.7ZM55.4 81.9C55.4 80.9 55.4 80 55.4 79C55.4 78.4 55.6 77.7 55.4 77.3C55.2 76.9 54.4 76.8 53.9 76.6C53.9 76.6 53.8 76.6 53.7 76.6C51.8 75.8 49.7 75.1 47.6 75.1C45.5 75.1 41.7 74.6 38.8 75.9C37.7 76.4 36.5 76.6 35.6 77.2C33.4 78.5 31.9 80.5 30.7 82.7C29.6 84.9 29.3 87.2 29 89.6C28.6 93 28.8 96.3 29.7 99.6C30.2 101.3 30.9 103 31.9 104.4C33.4 106.6 35.5 108.3 38.1 109.3C40.4 110.2 42.9 110.4 45.2 110.3C48.1 110.3 51 110.1 53.7 108.9C54.7 108.5 55.4 108.1 55.4 107.2C55.4 105.6 55.4 104 55.4 102.4C55.4 101.7 55.1 101.5 54.4 101.7C54.1 101.7 53.9 101.8 53.6 101.9C51.7 102.4 49.9 103 47.9 103.3C45.9 103.6 43.9 103.5 42 102.7C40.6 102.1 39.8 101.2 38.9 100.1C38 98.9 37.8 97.4 37.6 95.9C37.1 92.3 37.1 88.8 38.9 85.6C39.9 83.7 41.6 82.5 43.9 82.3C47.7 82.1 51.4 82.6 55.2 83.9C55.2 83.1 55.3 82.5 55.3 81.9H55.4ZM66.1 102.4C63.2 102.3 61.8 104.6 62 106.4C62.2 108.6 63.5 110.2 66.1 110.3C68.3 110.3 70.5 108.2 70.2 106.3C70.2 104 68.5 102.6 66.2 102.5L66.1 102.4Z" fill="white"/>
</svg>