<svg width="200" height="137" viewBox="0 0 200 137" fill="none" xmlns="http://www.w3.org/2000/svg">
<path d="M199.998 135.519C196.347 135.377 192.691 135.698 189.04 135.299C182.329 134.564 178.12 130.06 178.049 123.334C178.002 119.022 177.995 114.709 178.075 110.397C178.097 109.267 177.728 109.047 176.71 109.102C175.181 109.182 173.642 109.102 172.111 109.135C171.52 109.147 171.265 108.95 171.201 108.357C171.057 107.041 171.303 105.864 172.272 104.9C177.17 100.023 181.972 95.0555 186.715 90.0292C187.121 89.5991 187.606 89.273 188.178 89.0769C189.898 88.4885 190.557 88.928 190.557 90.6861C190.557 93.2359 190.588 95.7833 190.538 98.3331C190.522 99.1271 190.694 99.4059 191.552 99.3846C193.988 99.3208 196.429 99.3894 198.866 99.3468C199.589 99.335 199.806 99.5288 199.792 100.261C199.747 102.887 199.752 105.517 199.792 108.142C199.802 108.825 199.582 108.988 198.93 108.979C196.571 108.943 194.211 108.993 191.852 108.948C191.122 108.934 190.912 109.154 190.923 109.874C190.98 113.443 190.947 117.011 191.023 120.577C191.082 123.323 192.091 124.339 194.813 124.448C196.541 124.516 198.27 124.459 200 124.459V135.523L199.998 135.519Z" fill="#20343C"/>
<path d="M94.4221 133.177C93.7769 135.233 93.042 135.8 90.8822 135.684C88.8759 135.575 86.872 135.549 84.8681 135.649C84.1332 135.684 83.8543 135.516 83.8567 134.694C83.8827 118.963 83.8827 103.232 83.8567 87.5007C83.8567 86.676 84.1497 86.5507 84.8752 86.5554C88.4151 86.5885 91.9574 86.598 95.4973 86.5507C96.3149 86.5389 96.4614 86.8201 96.4567 87.555C96.4259 91.4777 96.4685 95.4005 96.4236 99.3232C96.4118 100.32 96.4898 100.611 97.5886 100.138C104.574 97.1302 111.413 97.6407 117.639 101.908C123.592 105.987 125.766 112.098 125.265 119.126C124.861 124.766 122.573 129.556 117.937 133.023C112.28 137.253 106.082 137.511 99.5878 135.403C97.8013 134.824 96.1164 134.004 94.4244 133.179L94.4221 133.177ZM112.403 117.344C112.403 112.738 108.816 109.199 104.149 109.199C99.4554 109.199 95.8683 112.781 95.873 117.457C95.8801 122.266 99.2853 125.605 104.163 125.589C108.948 125.572 112.405 122.113 112.403 117.344Z" fill="#20343C"/>
<path d="M155.378 120.478C151.207 120.478 147.038 120.506 142.87 120.459C141.937 120.449 141.878 120.693 142.119 121.51C143.449 126.01 148.745 128.047 153.268 125.752C153.65 125.558 154.076 125.376 154.366 125.078C155.936 123.479 157.88 123.209 160 123.28C162.514 123.365 165.036 123.346 167.552 123.301C168.528 123.285 168.767 123.479 168.422 124.481C166.832 129.103 163.476 132.092 159.371 134.415C151.935 138.621 140.93 136.783 135.523 132.021C129.857 127.03 127.848 120.605 129.419 113.329C131.031 105.874 135.845 101.008 143.222 99.1011C149.458 97.4895 155.668 97.8156 161.226 101.545C167.389 105.68 170.045 111.623 169.774 118.951C169.731 120.104 169.096 120.492 168.006 120.485C163.797 120.461 159.589 120.475 155.38 120.475L155.378 120.478ZM149.425 113.365C151.547 113.365 153.672 113.336 155.794 113.379C156.604 113.395 156.706 113.202 156.413 112.462C154.203 106.876 146.686 107.046 143.884 110.163C143.246 110.872 142.783 111.68 142.447 112.566C142.22 113.159 142.376 113.391 143.059 113.379C145.181 113.341 147.306 113.365 149.428 113.365H149.425Z" fill="#20343C"/>
<path d="M17.0879 99.8194C19.1272 99.4366 21.0933 99.6682 23.0523 99.6516C25.0184 99.6351 26.9821 99.6091 28.9482 99.5973C30.6898 99.5855 31.127 99.9234 31.6658 101.578C33.4806 107.147 35.2955 112.715 37.1363 118.275C37.3773 119.005 37.7791 119.681 38.1595 120.494C40.1091 114.636 42.0042 108.901 43.9278 103.177C45.4024 98.7891 45.218 99.6327 49.0108 99.5476C51.8394 99.4838 54.6751 99.6185 57.5037 99.5429C58.8034 99.5075 58.5907 100.115 58.2835 100.857C56.6577 104.791 55.0177 108.723 53.3801 112.653C50.4074 119.792 47.411 126.924 44.4808 134.082C43.9916 135.273 43.3063 135.79 42.0137 135.762C39.2631 135.7 36.5077 135.715 33.7571 135.757C32.5661 135.776 31.8713 135.282 31.42 134.202C26.7883 123.141 22.1331 112.089 17.4896 101.032C17.3266 100.646 17.2249 100.235 17.0879 99.817V99.8194Z" fill="#20343C"/>
<path d="M0.153895 117.391C0.153895 111.822 0.182252 106.249 0.127901 100.68C0.118448 99.6682 0.41856 99.465 1.37325 99.4815C4.83516 99.5406 8.29708 99.5264 11.759 99.4886C12.5034 99.4815 12.7633 99.6398 12.7609 100.443C12.7326 111.781 12.7326 123.119 12.7609 134.457C12.7609 135.256 12.5128 135.448 11.759 135.443C8.25691 135.41 4.75482 135.398 1.25509 135.45C0.373662 135.462 0.125538 135.23 0.132627 134.342C0.172799 128.692 0.153895 123.044 0.153895 117.394V117.391Z" fill="#20343C"/>
<path d="M63.0073 117.5C63.0073 111.895 63.0262 106.292 62.986 100.687C62.9789 99.81 63.1987 99.5595 64.0943 99.5737C67.6318 99.628 71.1694 99.6115 74.7069 99.5831C75.3969 99.5784 75.6616 99.732 75.6592 100.483C75.6356 111.888 75.638 123.294 75.6592 134.699C75.6592 135.381 75.4418 135.537 74.7943 135.533C71.1788 135.504 67.5609 135.493 63.9478 135.54C63.142 135.549 62.9907 135.289 62.9955 134.55C63.0238 128.866 63.012 123.183 63.012 117.5H63.0073Z" fill="#20343C"/>
<path d="M6.43508 94.8806C4.62732 94.8806 2.81956 94.8546 1.01417 94.8948C0.357231 94.9089 0.0500301 94.7175 0.125649 94.0464C0.130375 94.0086 0.130375 93.9661 0.125649 93.9283C-0.337516 91.473 0.461207 89.7503 2.83138 88.6515C4.49026 87.8811 6.02391 86.8177 7.55282 85.7992C8.93759 84.8753 10.45 84.4901 12.0734 84.3129C12.6476 84.2491 12.7516 84.4121 12.7516 84.906C12.7422 88.0016 12.7303 91.0949 12.7587 94.1906C12.7634 94.8097 12.4822 94.8924 11.9765 94.8877C10.1309 94.8711 8.28301 94.8806 6.43745 94.8806H6.43508Z" fill="#20343C"/>
<path d="M69.189 94.779C67.4214 94.779 65.6515 94.7577 63.8839 94.7908C63.2742 94.8026 63.0568 94.6797 62.9505 93.9921C62.5677 91.5463 63.2671 89.852 65.6066 88.6492C68.5179 87.151 71.1315 85.0785 74.3996 84.2822C75.1842 84.0908 75.6213 83.9868 75.5882 85.1069C75.5008 88.004 75.5363 90.9059 75.5764 93.803C75.5859 94.5498 75.411 94.8239 74.6123 94.7955C72.8069 94.7341 70.9968 94.7766 69.1914 94.7766L69.189 94.779Z" fill="#20343C"/>
<path d="M99.2476 76.0704C95.2966 74.1823 91.3218 72.3368 87.3968 70.3967C83.0369 68.2415 78.8518 65.7721 74.6408 63.3429C67.8281 59.4154 64.6308 53.4675 64.3283 45.7592C64.0991 39.8775 63.8817 34.0005 64.3307 28.1235C64.749 22.6529 65.3539 17.2037 66.0936 11.7662C66.2732 10.4476 66.5544 9.13373 66.6276 7.81041C66.7127 6.25077 67.509 5.40479 68.9198 4.90854C72.8094 3.54031 76.7794 2.47929 80.8227 1.69474C89.878 -0.0610266 99.0137 -0.320966 108.185 0.317067C115.848 0.848761 123.351 2.23116 130.632 4.75257C132.248 5.31263 133.118 6.12553 133.359 7.93801C134.682 17.8866 135.984 27.8328 135.92 37.8972C135.892 42.4485 135.563 46.9667 134.694 51.4518C133.961 55.2328 132.028 58.1772 129.018 60.4812C122.47 65.4909 115.17 69.2128 107.769 72.7503C105.411 73.8775 103.031 74.9669 100.661 76.0728H99.2453L99.2476 76.0704ZM99.8408 70.5621C99.25 70.262 98.8152 70.0139 98.3591 69.813C95.0555 68.3455 92.1064 66.3369 89.5732 63.78C81.1039 55.2304 77.6821 45.081 80.5438 33.2726C84.0317 18.8885 97.3075 8.89742 112.398 8.28539C117.691 8.07035 122.805 8.93287 127.668 11.062C128.432 11.3976 128.581 11.1424 128.692 10.4712C128.919 9.11247 127.98 8.80763 127.002 8.51224C119.213 6.16806 111.226 5.05032 103.116 4.77621C98.1204 4.60606 93.1414 4.93453 88.1671 5.42369C82.9542 5.93648 77.857 6.95733 72.8614 8.50752C71.7815 8.84307 71.2474 9.58508 71.1695 10.6603C70.7583 16.3624 69.8698 22.0149 69.4373 27.717C68.882 35.0048 68.7473 42.2736 69.7374 49.5354C70.1557 52.6097 71.3325 55.2446 74.0382 57.0264C75.2505 57.8251 76.3966 58.7207 77.5947 59.5407C83.9396 63.8817 90.9556 66.9584 97.8676 70.2289C98.4205 70.4912 99.0184 70.6802 99.8408 70.5621ZM98.3733 47.9592C98.3733 47.9592 98.3662 47.9592 98.3638 47.9592C98.3638 48.8997 98.3189 49.8449 98.3733 50.7831C98.5222 53.4368 98.8341 56.0409 101.058 57.9291C103.137 59.6966 105.545 60.7175 108.263 60.7364C113.022 60.7671 116.77 58.319 120.293 55.4927C121.25 54.7247 121.647 53.5172 121.432 52.2955C121.054 50.1592 121.047 48.0136 121.052 45.8631C121.052 45.1613 120.759 44.6911 120.076 44.4288C116.184 42.9329 112.523 40.9692 108.948 38.8448C108.104 38.3438 107.384 38.3462 106.564 38.9275C104.449 40.4233 102.244 41.7797 99.8006 42.7013C98.8388 43.0629 98.3898 43.7813 98.3804 44.7856C98.3709 45.8442 98.3804 46.9029 98.3804 47.9616L98.3733 47.9592ZM120.43 20.5143C119.606 20.4529 118.88 20.6278 118.174 20.8735C114.794 22.0503 111.874 24.0235 109.062 26.1645C107.937 27.0199 107.582 28.2629 107.823 29.6382C108.121 31.3444 108.298 33.0623 108.192 34.785C108.102 36.2099 108.714 37.0347 109.962 37.6302C112.332 38.7597 114.638 40.0051 116.864 41.4111C120.092 43.4504 123.313 43.3063 126.44 41.1204C127.6 40.3075 128.706 39.4308 129.632 38.3509C130.481 37.3655 130.984 36.2478 130.859 34.9126C130.705 33.275 130.506 31.6421 130.405 30.0021C130.029 23.9715 125.019 21.3769 120.43 20.5167V20.5143ZM84.743 43.1834C84.8186 43.8451 84.8635 44.5115 84.9722 45.166C85.6504 49.2542 87.8316 52.5672 90.4617 55.6392C92.7846 58.352 93.3612 58.4466 96.5797 56.7522C96.6482 56.7168 96.7144 56.6719 96.7877 56.6435C97.5769 56.3127 97.7565 55.7597 97.5438 54.9445C96.6128 51.3739 96.4639 47.7489 96.9673 44.1026C97.0618 43.4197 96.8704 42.9731 96.3458 42.5926C94.512 41.2646 92.9784 39.653 91.7826 37.7318C91.5038 37.2828 91.1588 37.0559 90.6342 37.063C87.8245 37.1032 84.6296 40.4328 84.743 43.1834ZM110.683 14.401C106.703 14.3183 103.102 15.0556 99.6139 16.334C97.3052 17.18 96.6553 18.3734 97.024 20.7979C97.1776 21.8022 97.4706 22.7947 97.5391 23.8038C97.6195 24.9735 98.2268 25.3114 99.2524 25.1507C101.077 24.8671 102.882 25.0656 104.628 25.5241C106.176 25.9305 107.379 25.5335 108.532 24.5458C110.995 22.4379 113.674 20.6987 116.822 19.7534C117.791 19.4628 118.481 18.9027 118.389 17.7212C118.268 16.1828 117.741 15.3888 116.515 15.0958C114.52 14.6208 112.509 14.2829 110.685 14.3987L110.683 14.401ZM95.41 19.0232C94.8287 19.4391 94.4624 19.666 94.1363 19.9401C89.5897 23.7565 86.5366 28.5441 84.8848 34.2202C84.5398 35.4089 84.4264 36.6424 84.6509 38.0555C86.6169 36.6802 88.5523 35.6003 90.8303 35.3191C91.2226 35.2694 91.3549 34.9008 91.4613 34.5487C92.3332 31.6539 93.8716 29.1254 95.7928 26.8143C96.1425 26.3937 96.3528 25.9329 96.1803 25.4083C95.5234 23.4209 95.3769 21.3674 95.4076 19.0256L95.41 19.0232ZM125.941 57.0736C123.989 56.0126 122.422 56.5868 120.91 57.7069C118.41 59.5596 115.704 61.053 112.838 62.2582C112.226 62.5158 111.559 62.6505 110.964 62.9364C110.139 63.3334 109.936 64.6875 110.576 65.6516C111.101 66.4385 111.576 65.6681 112.048 65.4933C112.415 65.3586 112.753 65.1506 113.098 64.9639C117.476 62.5961 121.884 60.2756 125.941 57.076V57.0736ZM123.63 14.1931C120.39 13.4015 117.432 12.572 114.305 13.1368C117.266 13.9402 120.118 15.6629 123.63 14.1931Z" fill="#20343C"/>
<path d="M99.8406 70.5645C99.0159 70.6826 98.4181 70.4912 97.8675 70.2313C90.9555 66.9608 83.9371 63.884 77.5946 59.543C76.3965 58.723 75.2504 57.8251 74.0381 57.0287C71.3324 55.247 70.1556 52.6121 69.7373 49.5377C68.7496 42.2783 68.8842 35.0095 69.4372 27.7194C69.8697 22.0173 70.7582 16.3648 71.1693 10.6627C71.2473 9.58745 71.7838 8.84308 72.8613 8.50988C77.8592 6.95733 82.954 5.93648 88.167 5.42606C93.1413 4.9369 98.1203 4.60843 103.116 4.77857C111.226 5.05505 119.213 6.17043 127.002 8.51461C127.98 8.80999 128.918 9.11247 128.692 10.4736C128.58 11.1447 128.432 11.3999 127.668 11.0644C122.805 8.93524 117.691 8.07507 112.398 8.28775C97.3074 8.89979 84.0316 18.8909 80.5437 33.275C77.6796 45.0833 81.1014 55.2328 89.573 63.7824C92.1063 66.3393 95.0554 68.3479 98.359 69.8154C98.8151 70.0186 99.2499 70.2643 99.8406 70.5645Z" fill="#00AA81"/>
<path d="M98.3733 47.9616C98.3733 46.9029 98.3662 45.8443 98.3733 44.7856C98.3827 43.7813 98.8293 43.0653 99.7935 42.7014C102.237 41.7821 104.439 40.4257 106.557 38.9275C107.379 38.3462 108.097 38.3438 108.941 38.8448C112.516 40.9692 116.177 42.9329 120.069 44.4288C120.754 44.6911 121.047 45.1613 121.045 45.8632C121.04 48.0159 121.045 50.1593 121.425 52.2955C121.643 53.5172 121.246 54.7247 120.286 55.4927C116.763 58.319 113.015 60.7695 108.256 60.7364C105.538 60.7175 103.13 59.6967 101.051 57.9291C98.827 56.0386 98.515 53.4368 98.3662 50.7831C98.3142 49.845 98.3567 48.9021 98.3567 47.9592C98.3591 47.9592 98.3638 47.9592 98.3662 47.9592L98.3733 47.9616Z" fill="#FEFEFF"/>
<path d="M120.43 20.5167C125.019 21.3769 130.029 23.9692 130.405 30.0021C130.506 31.6421 130.705 33.275 130.858 34.9126C130.984 36.2477 130.478 37.3655 129.632 38.3509C128.706 39.4308 127.6 40.3075 126.439 41.1204C123.313 43.3063 120.092 43.4528 116.864 41.4111C114.638 40.005 112.332 38.7597 109.962 37.6301C108.714 37.0346 108.102 36.2099 108.192 34.785C108.298 33.0623 108.121 31.3443 107.823 29.6382C107.584 28.2629 107.937 27.0199 109.061 26.1645C111.873 24.0235 114.794 22.0503 118.173 20.8735C118.88 20.6278 119.605 20.4529 120.43 20.5143V20.5167Z" fill="#FEFEFF"/>
<path d="M84.7431 43.1857C84.632 40.4327 87.8245 37.1032 90.6342 37.0653C91.1588 37.0583 91.5038 37.2851 91.7827 37.7341C92.9784 39.6553 94.512 41.2669 96.3458 42.595C96.8704 42.9754 97.0618 43.422 96.9673 44.105C96.464 47.7512 96.6128 51.3762 97.5439 54.9468C97.7566 55.7621 97.577 56.3174 96.7877 56.6459C96.7168 56.6766 96.6506 56.7191 96.5797 56.7546C93.3612 58.4489 92.7846 58.3544 90.4617 55.6415C87.8316 52.5695 85.6505 49.2565 84.9723 45.1684C84.8636 44.5138 84.8187 43.8474 84.7431 43.1857Z" fill="#FEFEFF"/>
<path d="M110.683 14.4034C112.507 14.2876 114.518 14.6256 116.512 15.1005C117.739 15.3936 118.263 16.1876 118.386 17.7259C118.478 18.9075 117.791 19.4675 116.82 19.7582C113.672 20.7034 110.992 22.4426 108.53 24.5505C107.377 25.5383 106.176 25.9353 104.626 25.5288C102.88 25.0704 101.074 24.8719 99.25 25.1555C98.2244 25.3138 97.6171 24.9782 97.5368 23.8085C97.4682 22.7995 97.1752 21.807 97.0216 20.8027C96.653 18.3781 97.3028 17.1848 99.6116 16.3388C103.102 15.0604 106.701 14.3231 110.68 14.4058L110.683 14.4034Z" fill="#FEFEFF"/>
<path d="M95.4074 19.0256C95.3767 21.3674 95.5232 23.421 96.1802 25.4083C96.3527 25.9329 96.1424 26.3937 95.7926 26.8143C93.8691 29.1254 92.3331 31.6516 91.4611 34.5487C91.3548 34.9008 91.2224 35.2718 90.8302 35.3191C88.5521 35.6003 86.6168 36.6802 84.6507 38.0555C84.4286 36.6424 84.5396 35.4089 84.8846 34.2202C86.5364 28.5441 89.5872 23.7565 94.1361 19.9401C94.4622 19.666 94.8285 19.4392 95.4098 19.0233L95.4074 19.0256Z" fill="#FEFEFF"/>
<path d="M125.941 57.0759C121.884 60.2779 117.476 62.5985 113.098 64.9639C112.753 65.1506 112.415 65.3586 112.048 65.4933C111.576 65.6681 111.101 66.4385 110.576 65.6516C109.936 64.6874 110.139 63.3358 110.964 62.9364C111.559 62.6505 112.226 62.5134 112.838 62.2582C115.704 61.053 118.41 59.5595 120.91 57.7069C122.42 56.5868 123.989 56.0126 125.941 57.0736V57.0759Z" fill="#FEFEFF"/>
<path d="M123.627 14.1978C120.118 15.6677 117.266 13.945 114.303 13.1415C117.427 12.5767 120.385 13.4062 123.627 14.1978Z" fill="#FEFEFF"/>
</svg>
