<svg xmlns="http://www.w3.org/2000/svg" width="300" height="300" viewBox="0 0 300 300">
  <rect width="300" height="300" fill="none"/>
  <rect width="300" height="300" fill="none"/>
  <path d="M35.51449,173.46136c-.19413.91007-.65528,1.13664-1.65233,1.41611-2.148.40212-10.79442.40212-14.31966.40212-6.08381,0-11.20185-4.33029-9.0367-12.49129,2.95293-11.16234,10.128-38.4943,10.128-38.4943h9.14078l-9.98324,37.95245a18.99545,18.99545,0,0,0-.31658,2.20452c-.24366,2.59727.89507,3.42021,4.00466,3.42021H35.6865a1.02308,1.02308,0,0,1,.95462,1.4342c-.50865,1.78594-1.12663,4.156-1.12663,4.156m57.50492-28.88524c1.54632,0,4.37578.22445,6.15367.4347l-6.07076,23.16758a45.55315,45.55315,0,0,1-6.40942.39439c-4.32625,0-5.71574-1.6643-5.38494-5.30879a24.83034,24.83034,0,0,1,.70678-4.106c.259-1.19729,1.34107-5.12516,1.34107-5.12516,1.61178-6.39666,3.958-9.45672,9.66359-9.45672M113.44916,124.294l-8.83759-.02228L101.055,137.86931a59.44076,59.44076,0,0,0-6.17287-.38839c-10.62952,0-17.234,4.55586-20.26083,16.55193,0,0-.98188,3.79232-1.30039,5.12516a16.61772,16.61772,0,0,0-.61384,3.63032c-.706,7.27932,2.86885,12.92825,12.05126,12.92825A63.27442,63.27442,0,0,0,98.52181,174.042c1.55327-.38017,1.94263-.74841,2.254-1.77791Zm13.92722,20.28211c4.34645,0,5.66312,1.98812,5.292,5.57148a15.55683,15.55683,0,0,1-.72,3.88527l-1.28751,5.12516c-1.28328,4.90894-3.88831,9.41479-9.605,9.41479a40.69335,40.69335,0,0,1-6.25275-.39439l6.09495-23.1676c1.9528-.21023,4.926-.4347,6.47832-.4347m13.30327,9.45673a26.53674,26.53674,0,0,0,.70287-4.02629c.59657-7.47538-3.00858-12.52567-12.10691-12.52567-1.58684,0-3.97853.12745-6.47221.38839l3.58-13.57531h-8.74558s-10.54351,40.14275-12.72284,48.25728c-.33275,1.18955,1.28135,1.45419,1.40868,1.49067a51.61086,51.61086,0,0,0,12.86758,1.67461c10.92268,0,17.35341-5.51921,20.203-16.55857Zm41.34168-9.0806c3.85914,0,5.52565,2.1429,5.17968,6.05087a16.88922,16.88922,0,0,1-.49955,2.92063l-1.47228,5.31332c-1.65652,6.22918-4.75724,9.02265-9.38766,9.02265-3.88848,0-5.63086-2.13-5.32945-6.03136a21.20675,21.20675,0,0,1,.721-3.49509c.27918-1.30022,1.28251-4.80952,1.28251-4.80952,1.793-6.55253,5.4414-8.9715,9.5058-8.9715m14.04457,5.49452c.63-6.92951-3.04294-12.96585-12.08658-12.96585-10.38878,0-17.25533,5.58228-20.173,16.44283,0,0-.82617,2.9794-1.25085,4.58524a23.76,23.76,0,0,0-.77742,3.94982c-.60608,6.9614,3.01551,13.25775,12.07432,13.25775,10.4617,0,17.13011-5.51921,20.12141-16.47949l1.37318-5.13517a21.55765,21.55765,0,0,0,.719-3.65513m35.979-11.14958c.63608-.55623.73935-1.42793-.42179-1.42793h-7.88284a1.97073,1.97073,0,0,0-1.64424.806l-14.39632,14.217,7.60752-28.59831h-8.77966s-9.18048,35.07248-13.02732,49.48685a1.04156,1.04156,0,0,0,1.00432,1.37351h6.07169a1.81418,1.81418,0,0,0,1.67169-1.37351l4.136-15.74948,6.73719,15.7637a1.92453,1.92453,0,0,0,1.623,1.33705h7.49261a1.03581,1.03581,0,0,0,.97271-1.52293c-1.42772-3.0904-8.55213-17.92786-8.55213-17.92786Zm13.636,5.65506c3.60836,0,5.45788,2.07316,5.129,5.91339a16.86569,16.86569,0,0,1-.457,2.50173H236.28417c1.25409-4.81905,4.06112-8.41513,9.39667-8.41513m12.80079,10.69065a31.44645,31.44645,0,0,0,.91008-4.6398c.619-7.75386-2.971-13.54027-11.75291-13.54027-10.17542,0-17.09263,4.56472-20.40957,16.92823,0,0-.519,1.80984-.993,3.772a43.186,43.186,0,0,0-.74454,4.29575c-.839,9.9873,6.02426,13.25776,11.89974,13.25776A65.93089,65.93089,0,0,0,250.789,174.598c1.28538-.14746,1.50677-.61866,1.8224-1.67848,0,0,1.278-5.35979,1.34383-5.51564a106.32621,106.32621,0,0,1-13.64018.89811c-4.98154,0-6.558-2.39265-6.26373-6.0068a14.3181,14.3181,0,0,1,.54121-2.70251h21.54816c.91716,0,1.49548-.56025,1.74524-1.6136,0,0,.22657-.82937.59575-2.33617m30.57145-16.86144a46.92364,46.92364,0,0,0-11.5486-1.31859c-6.27888,0-14.05971,2.0225-14.83937,10.84475a9.0271,9.0271,0,0,0,3.60026,7.89332l7.56432,5.50757c1.532,1.11241,2.00927,2.19063,1.84761,3.242-.19428,3.05-2.70605,3.62225-5.93229,3.62225-1.49455,0-7.42971-.27079-10.52527-.67709a1.68679,1.68679,0,0,0-1.74143,1.05531l-1.04047,4.114a1.071,1.071,0,0,0,.86456,1.38546,52.36846,52.36846,0,0,0,11.82681,1.26606c7.82828,0,14.90912-3.4525,15.6769-11.749.28918-2.89417-.44924-5.56373-4.22218-8.28621l-7.25094-5.37977a3.22791,3.22791,0,0,1-1.75655-2.66536c.28431-2.79928,3.33307-3.06006,5.31717-3.06006a76.39242,76.39242,0,0,1,10.36876.80082c1.1276.18413,1.52389-.81711,1.704-1.31365l.96884-3.71434a1.20658,1.20658,0,0,0-.882-1.56748m-122.05933-.03035a.94446.94446,0,0,0-.88488-1.27019,16.269,16.269,0,0,0-10.29161,3.15315l.33271-1.34592a.99423.99423,0,0,0-.98912-1.35412h-5.754a1.74293,1.74293,0,0,0-1.619,1.35412s-7.60478,28.755-9.063,34.313c-.262.94041.01,1.62006,1.00013,1.62006h5.95323a1.82925,1.82925,0,0,0,1.68077-1.40577l7.03047-26.60392a20.28984,20.28984,0,0,1,9.74654-2.336,1.83619,1.83619,0,0,0,1.62-1.3259s.79068-2.98115,1.23763-4.79843M58.91946,144.6397c-5.71785,0-8.20443,3.98755-9.63341,9.40734l-1.77481,6.82815c-.2498,1.01914-.39131,1.91311-.5107,2.7283-.33678,3.73193,1.49259,4.96926,4.13213,4.96926,2.52821,0,5.382-1.05531,8.47239-2.77285l5.561-20.73651a41.205,41.205,0,0,0-6.24659-.4237m15.93147-3.603L66.241,173.868a1.89611,1.89611,0,0,1-1.65442,1.28638H59.23684c-.75324,0-1.00305-.56414-.87667-1.175.19312-1.074.38533-1.99021.38533-1.99021a17.17227,17.17227,0,0,1-10.51526,3.6848c-6.08575,0-10.497-4.0366-9.82965-11.87808a39.98123,39.98123,0,0,1,.77472-4.04727c.45614-2.10316,1.00316-4.36448,1.40366-5.70152,2.70928-10.33471,9.5666-16.54984,20.23145-16.54984a49.45751,49.45751,0,0,1,13.08593,1.8c1.01123.24271,1.22167.63206.95458,1.73948" fill="#eee"/>
</svg>
