<?xml version="1.0" encoding="utf-8"?>
<!-- Generator: Adobe Illustrator 26.5.0, SVG Export Plug-In . SVG Version: 6.00 Build 0)  -->
<svg version="1.1" id="Layer_1" xmlns="http://www.w3.org/2000/svg" xmlns:xlink="http://www.w3.org/1999/xlink" x="0px" y="0px" width="200px" height="32px" viewBox="0 0 200 32" style="enable-background:new 0 0 200 32;" xml:space="preserve">
<g>
<path fill="#FEFEFE" d="M192.2,12.3c0.4,1.2,0.5,2.2-1.1,2.4c-3.2,2.1-4.1,1.7-5.9-3c-1.5,1.8-2.3,3.8-3.9,5.9 c2.8-0.8,5.2-1.8,7.8-1.9c0.6,0,1.1-0.1,1.6,0.3c2.3,0,4.6-0.1,6.9-0.1c0.6,0,1.5-0.2,1.5,0.9c0,0.1-0.1,0.1-0.1,0.2 c-0.3,1.1-0.2,2.7-0.9,3.3c-0.7,0.6-2.2,0.3-3.6,0.4c0.6,2.3,1.1,4.5,1.8,6.7c0.4,1.3,0.3,1.8-1.2,1.7c-1-0.1-2-0.1-2.9,0 c-1.1,0.1-1.6-0.4-2-1.4c-0.2-1.9-0.6-3.7-1.2-5.5c0.1-0.9-0.4-0.9-1-0.7c-1.5,0.4-3.1,0.8-4.5,1.6c-2.7,0.7-5.2,2.1-7.3,3.8 c-2,1.7-4.1,2.4-6.6,2.1c-0.8-0.1-1.7-0.1-2.5-0.1c4.6-7.4,9.2-14.8,13.8-22.2c0.2-0.3,0.3-0.6,0.5-0.9c1-0.8,1.1-2.5,2.5-3 c1,0,2.1,0.2,3.1,0.1c1.7-0.2,3,0.1,3.3,2.1C190.9,7.4,191.6,9.9,192.2,12.3z" />
<path fill="#FEFEFE" d="M166.3,3.4c0.8,0.8,1.6,1.6,2.5,2.4c-1.3,1.1-2.5,2.3-3.8,3.4c-0.7,0.8-1.3,0.2-2-0.1 c-2.2-1.1-4.4-1.3-6.6-0.2c-0.6,0.3-1.2,0.8-1.1,1.6c0.1,0.8,0.7,1.1,1.4,1.3c1,0.3,2.1,0.3,3.1,0.5c0.8,0.2,1.8,0.2,2.3,1.2 c2.5,0.8,4.4,2.2,5.6,4.6c1.4,7.6-3.8,11.2-10,11.7c-1.5,0.1-2.9,0.1-4.4,0.1c-2.4-0.4-4.7-1.2-6.7-2.6c-2.1-1.6-0.4-2.7,0.5-4 c1-1.3,1.8-2.6,3.5-0.5c0.9,1.1,2.4,1.6,4,1.6c1.2-0.7,2.6-0.5,3.8-0.9c1.1-0.4,2.2-0.7,2.5-2c0.3-1.3-0.9-1.6-1.7-2.1 c-0.3-0.2-0.6-0.6-0.9-0.9c-3.1-0.6-6.3-1.1-8.9-3.2c-1.8-0.8-2.7-3.4-1.8-5.4c0.3-0.7,0.6-1.4,1.3-1.9c1.5-3.1,4.3-4.5,7.3-5.5 C159.6,1.9,163,1.8,166.3,3.4z" />
<path fill="#FEFEFE" d="M145.2,3.8c-0.6,0.6-0.4,1.4-0.4,2.1c-0.2,3.7-3.2,2.1-5.1,2.6c-0.6,0.7-1.4,0.9-2.2,0.9c-1.2,0-2.4,0.1-3.5,0 c-1.6-0.1-2.7,0.4-3,2.1c-0.1,0.5-0.4,0.9-0.9,1.1c-0.4,1.4,0.7,0.9,1.2,0.9c3.8,0.1,7.6,0.1,11.3,0.1c1.5,3.3,0.1,5.8-3.4,5.9 c-2.4,0.1-4.8,0-7.1,0c-1.5,0-2.6,0.5-2.8,2.2c-0.1,0.9-0.7,1.3-1.2,1.9c3.9,0.5,7.8,0.2,11.7,0.2c1.7,0,2.4,0.4,1.9,2.2 c-0.7,3.1-0.6,3.2-3.9,3.1c-5.5,0-11-0.1-16.5-0.1c0.2-1.1,0.5-2.2,0.4-3.3c0.4-1.1,0.5-2.2,0.4-3.3c0.8-2.3,1.2-4.7,1.5-7.2 c0.4-2.4,0.8-4.8,1.3-7.2c0.4-1.6,0.2-3.8,1.2-4.7c1-0.8,3.2-0.3,4.8-0.3c1.2,0,2.5-0.1,3.7-0.1c1.3,0,2.5,0,3.8,0 c0.3-0.2,0.6-0.2,0.8,0c1.1,0,2.2,0,3.4,0C143.5,3.4,144.8,2.2,145.2,3.8z" />
<path fill="#FEFEFE" d="M92.1,3c0.3,1.9-0.5,3.6-0.7,5.4c-0.3,2.2-1,4.4-1,6.7c1,1.4,0.4,2.9,0.1,4.3c-0.4,1.7,0,3.7-1.7,5 c-0.1,0.4-0.2,0.8-0.4,1.2c-0.3,1.2,0.1,3.1-1,3.3c-1.7,0.4-3.7,0.7-5.4-0.3c0.4-2.2,0.8-4.5,1.2-6.7c-1-1.4-0.4-2.9-0.1-4.3 c0.2-1,0.5-2,0.4-3c0.7-2.8,0.4-5.8,2.3-8.2c0.5-3.2,0.5-3.2,3.4-3.4C90.2,2.9,91.2,3,92.1,3z" />
<path fill="#FEFEFE" d="M53.4,16.9c-0.4-1.7-1.7-1.5-3-1.6c-1.4-0.1-2.7,0.5-4.1,0.6c-0.4,0-0.8,0-1.3,0.1c-3.9,0.8-7.8,1.6-11.8,3 c2-3.2,4-6.5,6.2-10.1c0.4,1.7,0.8,3,1,4.3c0.3,1.3,0.6,2.5,2.4,1.7c0.5-0.2,1.1-0.1,1.7-0.1c0.1,0,0.2,0.1,0.3,0.1 c0.4-0.6,2,0.2,1.5-1.3c-0.4-1.1-0.8-2.2-0.9-3.4c-0.7-1.2-0.7-2.6-1.2-3.8c-0.1-0.6-0.3-1.1-0.4-1.7C43.8,4,43.6,3.3,43,2.9 C42,3,41,3.1,40,3c-2.1-0.3-3.3,0.6-4.5,2.4c-4.7,7.8-9.7,15.5-14.5,23.2c2.6,0.6,5.2,1.3,7.7-0.7c3.7-2.9,7.8-5.2,12.5-6.1 c0.9-0.5,1.6-0.8,1.8,0.7c0.1,0.9,0.3,1.7,0.4,2.6c0.5,1.1,0.7,2.3,0.8,3.5c2,1.3,4.2,0.6,6.3,0.4c-0.1-0.4-0.2-0.8-0.3-1.2 c0.6-0.8,0.7-1.5,0.2-2.4c-0.8-2.5-0.7-3,1.4-4.1C52.9,20.6,53.8,18.4,53.4,16.9z" />
<path fill="#FEFEFE" d="M26.2,8.8c-0.3-0.8-0.7-1.7-1-2.5c-1.1-1.2-2.3-2.2-3.7-2.9c-1.4-0.2-2.8-0.4-4.2-0.5c-0.6-0.5-1.1-0.3-1.7,0 c-0.8,0-1.7,0-2.5,0c-1.1,0-2.2,0-3.4,0C8.9,2,8,2.5,7.2,2.9C4.5,2.7,5.1,4.9,4.7,6.3c-0.4,4.1-1.2,8.2-2.1,12.2 C2,22,1.5,25.5,0.9,29c1.4,0,2.8,0,4.2,0.1c1.2,0.1,1.8-0.2,1.9-1.5c0.1-1.2,0.5-2.5,0.6-3.7c0.1-1.6,0.7-2.4,2.4-2.2 c1.6,0.2,3.2,0.1,4.8,0c4.2-0.1,7.7-1.6,10-5.4C26.3,14,26.3,11.4,26.2,8.8z M17.5,16c-0.3,0.1-0.7,0.3-1,0.3c-1.2,0-2.4,0-3.6,0 c-4,0.1-4,0.1-3.3-3.9c0.7-3.9,0.7-3.9,4.6-3.9c0.7,0,1.4,0,2.1,0c1.9,0,3.5,0.5,3.9,2.7C20.7,13.3,19.5,15.3,17.5,16z" />
<path fill="#FEFEFE" d="M120.5,9.3c-0.3-0.8-0.6-1.7-0.9-2.5c-1.5-2.1-3.5-3.3-6-3.8c-1.9,0-3.9,0-5.8-0.1c-0.3,0-0.6,0-0.8,0 c-1.5-1.5-3.1-0.8-4.6,0c-0.9,0.4-2.5-0.7-2.8,1.3c-0.3,1.8-0.7,3.7-1,5.5c-2,2.5-1.8,5.6-2.4,8.5c-0.1,0.5,0.3,0.9,0.7,1.2 c-0.5,3.2-1.1,6.4-1.6,9.7c1.4,0,2.8,0,4.2,0.1c1.2,0.1,1.8-0.2,1.9-1.5c0.1-1.4,0.5-2.7,0.7-4.1c0.1-1.2,0.5-1.9,1.9-1.8 c2.1,0.1,4.3,0.1,6.5,0.1C118.3,20.5,121,15.1,120.5,9.3z M110.8,16.3c-2.5,0.2-5,0.1-7.6,0.1c0.4-2.2,0.8-4.3,1.1-6.5 c0.1-1.1,0.7-1.4,1.7-1.3c1.5,0.1,2.9,0,4.4,0c2.8,0,4,0.9,4.2,3C114.7,13.9,113.2,16,110.8,16.3z" />
<path fill="#FEFEFE" d="M79.2,11.8C79,10.4,78.9,9,78.7,7.7c-0.7-1-1.4-2-2.1-3c-0.7-0.4-1.5-0.8-2.2-1.2c-0.6,0-1.2,0-1.7-0.4 c-0.8,0-1.6-0.1-2.4-0.1c-0.4,0-0.8,0-1.3,0c-0.7,0-1.4,0-2.1,0c-0.7,0-1.4,0-2.1,0c-0.7,0-1.4,0-2.1,0c-0.8-0.8-1.7-0.8-2.5,0 c-0.8,0.3-2.2-0.4-2.1,1.3c-0.5,0.7-0.8,1.4-1,2.2c-0.7,1.9-1.2,3.8-1.3,5.7c0.4,2.5-1,4.7-1.1,7.1c0.2,1.6-0.8,3.2,0,4.8 c-0.3,1.7-0.5,3.4-0.8,5c1.5,0,3.1,0,4.6,0.1c0.8,0,1.2-0.3,1.4-1.2c0.3-1.9,0.6-3.7,1-5.6c0.1-0.6-0.2-1.9,0.9-1.8 c1.4,0.1,3.1-0.9,4.2,0.8c1.1,1.8,2.1,3.6,3.1,5.4c0.5,0.6,1,1.2,1.2,2c1.9,0.4,3.8,0.1,5.7,0.2c1.4,0.1,0.6-0.8,0.5-1.3 c0.4-1.9-1.3-2.8-1.9-4.2c-0.2-0.5-0.4-0.9-0.7-1.3c-1-1.2-0.9-2,0.6-2.7c1.3-0.6,2.5-1.6,3.3-2.8C79,15.3,80.2,13.8,79.2,11.8z M69.4,15.6c-1,0.1-2.1,0-3.2,0c-4.2,0-4.2,0-3.5-4.2C63.4,8,63.4,8,66.7,8c0.8,0,1.7,0,2.5,0c2.6,0,3.9,1.1,4,3.2 C73.3,13.4,71.6,15.4,69.4,15.6z" />
</g>
</svg>